<svg width="557" height="557" viewBox="0 0 557 557" fill="none" xmlns="http://www.w3.org/2000/svg">
<g clip-path="url(#clip0_185_12)">
<path d="M26.7143 16H16V26.7143H26.7143V16Z" fill="black"/>
<path d="M37.4286 16H26.7143V26.7143H37.4286V16Z" fill="black"/>
<path d="M48.1429 16H37.4286V26.7143H48.1429V16Z" fill="black"/>
<path d="M58.8571 16H48.1429V26.7143H58.8571V16Z" fill="black"/>
<path d="M69.5714 16H58.8571V26.7143H69.5714V16Z" fill="black"/>
<path d="M80.2857 16H69.5714V26.7143H80.2857V16Z" fill="black"/>
<path d="M91 16H80.2857V26.7143H91V16Z" fill="black"/>
<path d="M112.429 16H101.714V26.7143H112.429V16Z" fill="black"/>
<path d="M144.571 16H133.857V26.7143H144.571V16Z" fill="black"/>
<path d="M155.286 16H144.571V26.7143H155.286V16Z" fill="black"/>
<path d="M176.714 16H166V26.7143H176.714V16Z" fill="black"/>
<path d="M187.429 16H176.714V26.7143H187.429V16Z" fill="black"/>
<path d="M198.143 16H187.429V26.7143H198.143V16Z" fill="black"/>
<path d="M208.857 16H198.143V26.7143H208.857V16Z" fill="black"/>
<path d="M219.571 16H208.857V26.7143H219.571V16Z" fill="black"/>
<path d="M230.286 16H219.571V26.7143H230.286V16Z" fill="black"/>
<path d="M262.429 16H251.714V26.7143H262.429V16Z" fill="black"/>
<path d="M283.857 16H273.143V26.7143H283.857V16Z" fill="black"/>
<path d="M316 16H305.286V26.7143H316V16Z" fill="black"/>
<path d="M337.429 16H326.714V26.7143H337.429V16Z" fill="black"/>
<path d="M348.143 16H337.429V26.7143H348.143V16Z" fill="black"/>
<path d="M401.714 16H391V26.7143H401.714V16Z" fill="black"/>
<path d="M412.429 16H401.714V26.7143H412.429V16Z" fill="black"/>
<path d="M455.286 16H444.571V26.7143H455.286V16Z" fill="black"/>
<path d="M476.714 16H466V26.7143H476.714V16Z" fill="black"/>
<path d="M487.429 16H476.714V26.7143H487.429V16Z" fill="black"/>
<path d="M498.143 16H487.429V26.7143H498.143V16Z" fill="black"/>
<path d="M508.857 16H498.143V26.7143H508.857V16Z" fill="black"/>
<path d="M519.571 16H508.857V26.7143H519.571V16Z" fill="black"/>
<path d="M530.286 16H519.571V26.7143H530.286V16Z" fill="black"/>
<path d="M541 16H530.286V26.7143H541V16Z" fill="black"/>
<path d="M26.7143 26.7143H16V37.4286H26.7143V26.7143Z" fill="black"/>
<path d="M91 26.7143H80.2857V37.4286H91V26.7143Z" fill="black"/>
<path d="M133.857 26.7143H123.143V37.4286H133.857V26.7143Z" fill="black"/>
<path d="M144.571 26.7143H133.857V37.4286H144.571V26.7143Z" fill="black"/>
<path d="M176.714 26.7143H166V37.4286H176.714V26.7143Z" fill="black"/>
<path d="M187.429 26.7143H176.714V37.4286H187.429V26.7143Z" fill="black"/>
<path d="M219.571 26.7143H208.857V37.4286H219.571V26.7143Z" fill="black"/>
<path d="M241 26.7143H230.286V37.4286H241V26.7143Z" fill="black"/>
<path d="M262.429 26.7143H251.714V37.4286H262.429V26.7143Z" fill="black"/>
<path d="M273.143 26.7143H262.429V37.4286H273.143V26.7143Z" fill="black"/>
<path d="M337.429 26.7143H326.714V37.4286H337.429V26.7143Z" fill="black"/>
<path d="M348.143 26.7143H337.429V37.4286H348.143V26.7143Z" fill="black"/>
<path d="M380.286 26.7143H369.571V37.4286H380.286V26.7143Z" fill="black"/>
<path d="M391 26.7143H380.286V37.4286H391L391 26.7143Z" fill="black"/>
<path d="M423.143 26.7143H412.429V37.4286H423.143V26.7143Z" fill="black"/>
<path d="M433.857 26.7143H423.143V37.4286H433.857V26.7143Z" fill="black"/>
<path d="M444.571 26.7143H433.857V37.4286H444.571L444.571 26.7143Z" fill="black"/>
<path d="M455.286 26.7143H444.571L444.571 37.4286H455.286V26.7143Z" fill="black"/>
<path d="M476.714 26.7143H466V37.4286H476.714V26.7143Z" fill="black"/>
<path d="M541 26.7143H530.286L530.286 37.4286H541V26.7143Z" fill="black"/>
<path d="M26.7143 37.4286H16V48.1429H26.7143V37.4286Z" fill="black"/>
<path d="M48.1429 37.4286H37.4286V48.1429H48.1429V37.4286Z" fill="black"/>
<path d="M58.8571 37.4286H48.1429V48.1429H58.8571V37.4286Z" fill="black"/>
<path d="M69.5714 37.4286H58.8571V48.1429H69.5714V37.4286Z" fill="black"/>
<path d="M91 37.4286H80.2857V48.1429H91V37.4286Z" fill="black"/>
<path d="M112.429 37.4286H101.714V48.1429H112.429V37.4286Z" fill="black"/>
<path d="M123.143 37.4286H112.429V48.1429H123.143V37.4286Z" fill="black"/>
<path d="M133.857 37.4286H123.143V48.1429H133.857V37.4286Z" fill="black"/>
<path d="M144.571 37.4286H133.857V48.1429H144.571V37.4286Z" fill="black"/>
<path d="M166 37.4286H155.286V48.1429H166V37.4286Z" fill="black"/>
<path d="M208.857 37.4286H198.143V48.1429H208.857V37.4286Z" fill="black"/>
<path d="M230.286 37.4286H219.571V48.1429H230.286V37.4286Z" fill="black"/>
<path d="M251.714 37.4286H241V48.1429H251.714V37.4286Z" fill="black"/>
<path d="M273.143 37.4286H262.429V48.1429H273.143V37.4286Z" fill="black"/>
<path d="M294.571 37.4286H283.857V48.1429H294.571V37.4286Z" fill="black"/>
<path d="M326.714 37.4286H316V48.1429H326.714V37.4286Z" fill="black"/>
<path d="M358.857 37.4286H348.143L348.143 48.1429H358.857V37.4286Z" fill="black"/>
<path d="M369.571 37.4286H358.857V48.1429H369.571V37.4286Z" fill="black"/>
<path d="M391 37.4286H380.286L380.286 48.1429H391V37.4286Z" fill="black"/>
<path d="M401.714 37.4286H391V48.1429H401.714V37.4286Z" fill="black"/>
<path d="M423.143 37.4286H412.429V48.1429H423.143V37.4286Z" fill="black"/>
<path d="M444.571 37.4286H433.857L433.857 48.1429H444.571V37.4286Z" fill="black"/>
<path d="M455.286 37.4286H444.571V48.1429H455.286V37.4286Z" fill="black"/>
<path d="M476.714 37.4286H466V48.1429H476.714V37.4286Z" fill="black"/>
<path d="M498.143 37.4286H487.429V48.1429H498.143V37.4286Z" fill="black"/>
<path d="M508.857 37.4286H498.143V48.1429H508.857V37.4286Z" fill="black"/>
<path d="M519.571 37.4286H508.857V48.1429H519.571V37.4286Z" fill="black"/>
<path d="M541 37.4286H530.286V48.1429H541V37.4286Z" fill="black"/>
<path d="M26.7143 48.1429H16V58.8571H26.7143V48.1429Z" fill="black"/>
<path d="M48.1429 48.1429H37.4286V58.8571H48.1429V48.1429Z" fill="black"/>
<path d="M58.8571 48.1429H48.1429V58.8571H58.8571V48.1429Z" fill="black"/>
<path d="M69.5714 48.1429H58.8571V58.8571H69.5714V48.1429Z" fill="black"/>
<path d="M91 48.1429H80.2857V58.8571H91V48.1429Z" fill="black"/>
<path d="M112.429 48.1429H101.714V58.8571H112.429V48.1429Z" fill="black"/>
<path d="M123.143 48.1429H112.429V58.8571H123.143V48.1429Z" fill="black"/>
<path d="M133.857 48.1429H123.143V58.8571H133.857V48.1429Z" fill="black"/>
<path d="M166 48.1429H155.286V58.8571H166V48.1429Z" fill="black"/>
<path d="M219.571 48.1429H208.857V58.8571H219.571V48.1429Z" fill="black"/>
<path d="M241 48.1429H230.286V58.8571H241V48.1429Z" fill="black"/>
<path d="M262.429 48.1429H251.714V58.8571H262.429V48.1429Z" fill="black"/>
<path d="M273.143 48.1429H262.429V58.8571H273.143V48.1429Z" fill="black"/>
<path d="M294.571 48.1429H283.857V58.8571H294.571V48.1429Z" fill="black"/>
<path d="M316 48.1429H305.286V58.8571H316L316 48.1429Z" fill="black"/>
<path d="M326.714 48.1429H316L316 58.8571H326.714V48.1429Z" fill="black"/>
<path d="M369.571 48.1429H358.857L358.857 58.8571H369.571V48.1429Z" fill="black"/>
<path d="M391 48.1429H380.286V58.8571H391V48.1429Z" fill="black"/>
<path d="M423.143 48.1429H412.429V58.8571H423.143V48.1429Z" fill="black"/>
<path d="M444.571 48.1429H433.857V58.8571H444.571V48.1429Z" fill="black"/>
<path d="M476.714 48.1429H466V58.8571H476.714V48.1429Z" fill="black"/>
<path d="M498.143 48.1429H487.429V58.8571H498.143V48.1429Z" fill="black"/>
<path d="M508.857 48.1429H498.143V58.8571H508.857V48.1429Z" fill="black"/>
<path d="M519.571 48.1429H508.857V58.8571H519.571V48.1429Z" fill="black"/>
<path d="M541 48.1429H530.286V58.8571H541V48.1429Z" fill="black"/>
<path d="M26.7143 58.8571H16V69.5714H26.7143V58.8571Z" fill="black"/>
<path d="M48.1429 58.8571H37.4286V69.5714H48.1429V58.8571Z" fill="black"/>
<path d="M58.8571 58.8571H48.1429V69.5714H58.8571V58.8571Z" fill="black"/>
<path d="M69.5714 58.8571H58.8571V69.5714H69.5714V58.8571Z" fill="black"/>
<path d="M91 58.8571H80.2857V69.5714H91V58.8571Z" fill="black"/>
<path d="M133.857 58.8571H123.143V69.5714H133.857V58.8571Z" fill="black"/>
<path d="M144.571 58.8571H133.857V69.5714H144.571V58.8571Z" fill="black"/>
<path d="M155.286 58.8571H144.571V69.5714H155.286V58.8571Z" fill="black"/>
<path d="M176.714 58.8571H166V69.5714H176.714V58.8571Z" fill="black"/>
<path d="M187.429 58.8571H176.714V69.5714H187.429V58.8571Z" fill="black"/>
<path d="M208.857 58.8571H198.143V69.5714H208.857V58.8571Z" fill="black"/>
<path d="M241 58.8571H230.286V69.5714H241V58.8571Z" fill="black"/>
<path d="M262.429 58.8571H251.714V69.5714H262.429V58.8571Z" fill="black"/>
<path d="M273.143 58.8571H262.429V69.5714H273.143V58.8571Z" fill="black"/>
<path d="M283.857 58.8571H273.143V69.5714H283.857V58.8571Z" fill="black"/>
<path d="M294.571 58.8571H283.857V69.5714H294.571V58.8571Z" fill="black"/>
<path d="M305.286 58.8571H294.571V69.5714H305.286V58.8571Z" fill="black"/>
<path d="M316 58.8571H305.286V69.5714H316V58.8571Z" fill="black"/>
<path d="M348.143 58.8571H337.429V69.5714H348.143V58.8571Z" fill="black"/>
<path d="M358.857 58.8571H348.143V69.5714H358.857L358.857 58.8571Z" fill="black"/>
<path d="M369.571 58.8571H358.857L358.857 69.5714H369.571V58.8571Z" fill="black"/>
<path d="M391 58.8571H380.286V69.5714H391V58.8571Z" fill="black"/>
<path d="M401.714 58.8571H391V69.5714H401.714V58.8571Z" fill="black"/>
<path d="M476.714 58.8571H466V69.5714H476.714V58.8571Z" fill="black"/>
<path d="M498.143 58.8571H487.429V69.5714H498.143V58.8571Z" fill="black"/>
<path d="M508.857 58.8571H498.143V69.5714H508.857V58.8571Z" fill="black"/>
<path d="M519.571 58.8571H508.857V69.5714H519.571V58.8571Z" fill="black"/>
<path d="M541 58.8571H530.286V69.5714H541V58.8571Z" fill="black"/>
<path d="M26.7143 69.5714H16V80.2857H26.7143V69.5714Z" fill="black"/>
<path d="M91 69.5714H80.2857V80.2857H91V69.5714Z" fill="black"/>
<path d="M112.429 69.5714H101.714V80.2857H112.429V69.5714Z" fill="black"/>
<path d="M123.143 69.5714H112.429V80.2857H123.143V69.5714Z" fill="black"/>
<path d="M144.571 69.5714H133.857V80.2857H144.571V69.5714Z" fill="black"/>
<path d="M208.857 69.5714H198.143V80.2857H208.857V69.5714Z" fill="black"/>
<path d="M230.286 69.5714H219.571V80.2857H230.286V69.5714Z" fill="black"/>
<path d="M251.714 69.5714H241V80.2857H251.714V69.5714Z" fill="black"/>
<path d="M262.429 69.5714H251.714V80.2857H262.429V69.5714Z" fill="black"/>
<path d="M305.286 69.5714H294.571V80.2857H305.286V69.5714Z" fill="black"/>
<path d="M316 69.5714H305.286V80.2857H316V69.5714Z" fill="black"/>
<path d="M337.429 69.5714H326.714V80.2857H337.429L337.429 69.5714Z" fill="black"/>
<path d="M358.857 69.5714H348.143L348.143 80.2857H358.857V69.5714Z" fill="black"/>
<path d="M369.571 69.5714H358.857V80.2857H369.571V69.5714Z" fill="black"/>
<path d="M423.143 69.5714H412.429V80.2857H423.143V69.5714Z" fill="black"/>
<path d="M433.857 69.5714H423.143V80.2857H433.857V69.5714Z" fill="black"/>
<path d="M476.714 69.5714H466V80.2857H476.714V69.5714Z" fill="black"/>
<path d="M541 69.5714H530.286V80.2857H541V69.5714Z" fill="black"/>
<path d="M26.7143 80.2857H16V91H26.7143V80.2857Z" fill="black"/>
<path d="M37.4286 80.2857H26.7143V91H37.4286V80.2857Z" fill="black"/>
<path d="M48.1429 80.2857H37.4286V91H48.1429V80.2857Z" fill="black"/>
<path d="M58.8571 80.2857H48.1429V91H58.8571V80.2857Z" fill="black"/>
<path d="M69.5714 80.2857H58.8571V91H69.5714V80.2857Z" fill="black"/>
<path d="M80.2857 80.2857H69.5714V91H80.2857V80.2857Z" fill="black"/>
<path d="M91 80.2857H80.2857V91H91V80.2857Z" fill="black"/>
<path d="M112.429 80.2857H101.714V91H112.429V80.2857Z" fill="black"/>
<path d="M133.857 80.2857H123.143V91H133.857V80.2857Z" fill="black"/>
<path d="M155.286 80.2857H144.571V91H155.286V80.2857Z" fill="black"/>
<path d="M176.714 80.2857H166V91H176.714V80.2857Z" fill="black"/>
<path d="M198.143 80.2857H187.429V91H198.143V80.2857Z" fill="black"/>
<path d="M219.571 80.2857H208.857V91H219.571V80.2857Z" fill="black"/>
<path d="M241 80.2857H230.286V91H241V80.2857Z" fill="black"/>
<path d="M262.429 80.2857H251.714V91H262.429V80.2857Z" fill="black"/>
<path d="M283.857 80.2857H273.143V91H283.857V80.2857Z" fill="black"/>
<path d="M305.286 80.2857H294.571V91H305.286V80.2857Z" fill="black"/>
<path d="M326.714 80.2857H316L316 91H326.714V80.2857Z" fill="black"/>
<path d="M348.143 80.2857H337.429L337.429 91H348.143L348.143 80.2857Z" fill="black"/>
<path d="M369.571 80.2857H358.857L358.857 91H369.571V80.2857Z" fill="black"/>
<path d="M391 80.2857H380.286V91H391V80.2857Z" fill="black"/>
<path d="M412.429 80.2857H401.714V91H412.429V80.2857Z" fill="black"/>
<path d="M433.857 80.2857H423.143L423.143 91H433.857V80.2857Z" fill="black"/>
<path d="M455.286 80.2857H444.571V91H455.286V80.2857Z" fill="black"/>
<path d="M476.714 80.2857H466V91H476.714V80.2857Z" fill="black"/>
<path d="M487.429 80.2857H476.714V91H487.429V80.2857Z" fill="black"/>
<path d="M498.143 80.2857H487.429V91H498.143V80.2857Z" fill="black"/>
<path d="M508.857 80.2857H498.143V91H508.857V80.2857Z" fill="black"/>
<path d="M519.571 80.2857H508.857V91H519.571V80.2857Z" fill="black"/>
<path d="M530.286 80.2857H519.571V91H530.286L530.286 80.2857Z" fill="black"/>
<path d="M541 80.2857H530.286L530.286 91H541V80.2857Z" fill="black"/>
<path d="M112.429 91H101.714V101.714H112.429V91Z" fill="black"/>
<path d="M144.571 91H133.857V101.714H144.571V91Z" fill="black"/>
<path d="M155.286 91H144.571V101.714H155.286V91Z" fill="black"/>
<path d="M166 91H155.286V101.714H166V91Z" fill="black"/>
<path d="M198.143 91H187.429V101.714H198.143V91Z" fill="black"/>
<path d="M208.857 91H198.143V101.714H208.857V91Z" fill="black"/>
<path d="M230.286 91H219.571V101.714H230.286V91Z" fill="black"/>
<path d="M251.714 91H241V101.714H251.714V91Z" fill="black"/>
<path d="M262.429 91H251.714V101.714H262.429V91Z" fill="black"/>
<path d="M305.286 91H294.571V101.714H305.286V91Z" fill="black"/>
<path d="M337.429 91H326.714V101.714H337.429L337.429 91Z" fill="black"/>
<path d="M348.143 91H337.429L337.429 101.714H348.143V91Z" fill="black"/>
<path d="M358.857 91H348.143V101.714H358.857L358.857 91Z" fill="black"/>
<path d="M380.286 91H369.571V101.714H380.286L380.286 91Z" fill="black"/>
<path d="M423.143 91H412.429V101.714H423.143L423.143 91Z" fill="black"/>
<path d="M444.571 91H433.857L433.857 101.714H444.571L444.571 91Z" fill="black"/>
<path d="M26.7143 101.714H16V112.429H26.7143V101.714Z" fill="black"/>
<path d="M37.4286 101.714H26.7143V112.429H37.4286V101.714Z" fill="black"/>
<path d="M58.8571 101.714H48.1429V112.429H58.8571V101.714Z" fill="black"/>
<path d="M91 101.714H80.2857V112.429H91V101.714Z" fill="black"/>
<path d="M101.714 101.714H91V112.429H101.714V101.714Z" fill="black"/>
<path d="M144.571 101.714H133.857V112.429H144.571V101.714Z" fill="black"/>
<path d="M187.429 101.714H176.714V112.429H187.429V101.714Z" fill="black"/>
<path d="M208.857 101.714H198.143V112.429H208.857V101.714Z" fill="black"/>
<path d="M262.429 101.714H251.714V112.429H262.429V101.714Z" fill="black"/>
<path d="M273.143 101.714H262.429V112.429H273.143V101.714Z" fill="black"/>
<path d="M283.857 101.714H273.143V112.429H283.857V101.714Z" fill="black"/>
<path d="M294.571 101.714H283.857V112.429H294.571V101.714Z" fill="black"/>
<path d="M305.286 101.714H294.571V112.429H305.286V101.714Z" fill="black"/>
<path d="M326.714 101.714H316V112.429H326.714V101.714Z" fill="black"/>
<path d="M337.429 101.714H326.714V112.429H337.429V101.714Z" fill="black"/>
<path d="M348.143 101.714H337.429V112.429H348.143V101.714Z" fill="black"/>
<path d="M358.857 101.714H348.143V112.429H358.857V101.714Z" fill="black"/>
<path d="M369.571 101.714H358.857V112.429H369.571V101.714Z" fill="black"/>
<path d="M380.286 101.714H369.571V112.429H380.286V101.714Z" fill="black"/>
<path d="M391 101.714H380.286V112.429H391V101.714Z" fill="black"/>
<path d="M433.857 101.714H423.143L423.143 112.429H433.857L433.857 101.714Z" fill="black"/>
<path d="M444.571 101.714H433.857L433.857 112.429H444.571V101.714Z" fill="black"/>
<path d="M466 101.714H455.286V112.429H466V101.714Z" fill="black"/>
<path d="M476.714 101.714H466V112.429H476.714V101.714Z" fill="black"/>
<path d="M487.429 101.714H476.714V112.429H487.429V101.714Z" fill="black"/>
<path d="M508.857 101.714H498.143V112.429H508.857V101.714Z" fill="black"/>
<path d="M519.571 101.714H508.857V112.429H519.571V101.714Z" fill="black"/>
<path d="M541 101.714H530.286V112.429H541V101.714Z" fill="black"/>
<path d="M48.1429 112.429H37.4286V123.143H48.1429V112.429Z" fill="black"/>
<path d="M58.8571 112.429H48.1429V123.143H58.8571V112.429Z" fill="black"/>
<path d="M69.5714 112.429H58.8571V123.143H69.5714V112.429Z" fill="black"/>
<path d="M101.714 112.429H91V123.143H101.714V112.429Z" fill="black"/>
<path d="M133.857 112.429H123.143V123.143H133.857V112.429Z" fill="black"/>
<path d="M144.571 112.429H133.857V123.143H144.571V112.429Z" fill="black"/>
<path d="M155.286 112.429H144.571V123.143H155.286V112.429Z" fill="black"/>
<path d="M166 112.429H155.286V123.143H166V112.429Z" fill="black"/>
<path d="M176.714 112.429H166V123.143H176.714V112.429Z" fill="black"/>
<path d="M198.143 112.429H187.429V123.143H198.143V112.429Z" fill="black"/>
<path d="M208.857 112.429H198.143V123.143H208.857V112.429Z" fill="black"/>
<path d="M219.571 112.429H208.857V123.143H219.571V112.429Z" fill="black"/>
<path d="M251.714 112.429H241V123.143H251.714V112.429Z" fill="black"/>
<path d="M262.429 112.429H251.714V123.143H262.429V112.429Z" fill="black"/>
<path d="M273.143 112.429H262.429V123.143H273.143V112.429Z" fill="black"/>
<path d="M283.857 112.429H273.143V123.143H283.857V112.429Z" fill="black"/>
<path d="M294.571 112.429H283.857V123.143H294.571V112.429Z" fill="black"/>
<path d="M305.286 112.429H294.571V123.143H305.286V112.429Z" fill="black"/>
<path d="M348.143 112.429H337.429L337.429 123.143H348.143V112.429Z" fill="black"/>
<path d="M380.286 112.429H369.571V123.143H380.286V112.429Z" fill="black"/>
<path d="M391 112.429H380.286V123.143H391V112.429Z" fill="black"/>
<path d="M401.714 112.429H391V123.143H401.714V112.429Z" fill="black"/>
<path d="M412.429 112.429H401.714V123.143H412.429V112.429Z" fill="black"/>
<path d="M423.143 112.429H412.429V123.143H423.143L423.143 112.429Z" fill="black"/>
<path d="M433.857 112.429H423.143L423.143 123.143H433.857V112.429Z" fill="black"/>
<path d="M466 112.429H455.286V123.143H466V112.429Z" fill="black"/>
<path d="M476.714 112.429H466V123.143H476.714V112.429Z" fill="black"/>
<path d="M508.857 112.429H498.143V123.143H508.857V112.429Z" fill="black"/>
<path d="M530.286 112.429H519.571L519.571 123.143H530.286L530.286 112.429Z" fill="black"/>
<path d="M541 112.429H530.286L530.286 123.143H541V112.429Z" fill="black"/>
<path d="M26.7143 123.143H16V133.857H26.7143V123.143Z" fill="black"/>
<path d="M37.4286 123.143H26.7143V133.857H37.4286V123.143Z" fill="black"/>
<path d="M48.1429 123.143H37.4286V133.857H48.1429V123.143Z" fill="black"/>
<path d="M91 123.143H80.2857V133.857H91V123.143Z" fill="black"/>
<path d="M101.714 123.143H91V133.857H101.714V123.143Z" fill="black"/>
<path d="M123.143 123.143H112.429V133.857H123.143V123.143Z" fill="black"/>
<path d="M155.286 123.143H144.571V133.857H155.286V123.143Z" fill="black"/>
<path d="M166 123.143H155.286V133.857H166V123.143Z" fill="black"/>
<path d="M176.714 123.143H166V133.857H176.714V123.143Z" fill="black"/>
<path d="M187.429 123.143H176.714V133.857H187.429V123.143Z" fill="black"/>
<path d="M198.143 123.143H187.429V133.857H198.143V123.143Z" fill="black"/>
<path d="M208.857 123.143H198.143V133.857H208.857V123.143Z" fill="black"/>
<path d="M219.571 123.143H208.857V133.857H219.571V123.143Z" fill="black"/>
<path d="M230.286 123.143H219.571V133.857H230.286V123.143Z" fill="black"/>
<path d="M241 123.143H230.286V133.857H241V123.143Z" fill="black"/>
<path d="M251.714 123.143H241V133.857H251.714V123.143Z" fill="black"/>
<path d="M283.857 123.143H273.143V133.857H283.857V123.143Z" fill="black"/>
<path d="M294.571 123.143H283.857V133.857H294.571V123.143Z" fill="black"/>
<path d="M305.286 123.143H294.571V133.857H305.286V123.143Z" fill="black"/>
<path d="M380.286 123.143H369.571V133.857H380.286V123.143Z" fill="black"/>
<path d="M401.714 123.143H391L391 133.857H401.714V123.143Z" fill="black"/>
<path d="M412.429 123.143H401.714V133.857H412.429V123.143Z" fill="black"/>
<path d="M498.143 123.143H487.429V133.857H498.143V123.143Z" fill="black"/>
<path d="M508.857 123.143H498.143V133.857H508.857V123.143Z" fill="black"/>
<path d="M519.571 123.143H508.857V133.857H519.571L519.571 123.143Z" fill="black"/>
<path d="M26.7143 133.857H16V144.571H26.7143V133.857Z" fill="black"/>
<path d="M48.1429 133.857H37.4286V144.571H48.1429V133.857Z" fill="black"/>
<path d="M69.5714 133.857H58.8571V144.571H69.5714V133.857Z" fill="black"/>
<path d="M123.143 133.857H112.429V144.571H123.143V133.857Z" fill="black"/>
<path d="M144.571 133.857H133.857V144.571H144.571V133.857Z" fill="black"/>
<path d="M155.286 133.857H144.571V144.571H155.286V133.857Z" fill="black"/>
<path d="M187.429 133.857H176.714V144.571H187.429V133.857Z" fill="black"/>
<path d="M198.143 133.857H187.429V144.571H198.143V133.857Z" fill="black"/>
<path d="M219.571 133.857H208.857V144.571H219.571V133.857Z" fill="black"/>
<path d="M230.286 133.857H219.571V144.571H230.286V133.857Z" fill="black"/>
<path d="M241 133.857H230.286V144.571H241V133.857Z" fill="black"/>
<path d="M251.714 133.857H241V144.571H251.714V133.857Z" fill="black"/>
<path d="M273.143 133.857H262.429V144.571H273.143V133.857Z" fill="black"/>
<path d="M305.286 133.857H294.571V144.571H305.286V133.857Z" fill="black"/>
<path d="M316 133.857H305.286V144.571H316V133.857Z" fill="black"/>
<path d="M326.714 133.857H316V144.571H326.714V133.857Z" fill="black"/>
<path d="M348.143 133.857H337.429V144.571H348.143V133.857Z" fill="black"/>
<path d="M358.857 133.857H348.143V144.571H358.857V133.857Z" fill="black"/>
<path d="M380.286 133.857H369.571V144.571H380.286V133.857Z" fill="black"/>
<path d="M466 133.857H455.286V144.571H466V133.857Z" fill="black"/>
<path d="M498.143 133.857H487.429V144.571H498.143V133.857Z" fill="black"/>
<path d="M519.571 133.857H508.857L508.857 144.571H519.571V133.857Z" fill="black"/>
<path d="M530.286 133.857H519.571V144.571H530.286V133.857Z" fill="black"/>
<path d="M26.7143 144.571H16V155.286H26.7143V144.571Z" fill="black"/>
<path d="M58.8571 144.571H48.1429V155.286H58.8571V144.571Z" fill="black"/>
<path d="M91 144.571H80.2857V155.286H91V144.571Z" fill="black"/>
<path d="M101.714 144.571H91V155.286H101.714V144.571Z" fill="black"/>
<path d="M112.429 144.571H101.714V155.286H112.429V144.571Z" fill="black"/>
<path d="M123.143 144.571H112.429V155.286H123.143V144.571Z" fill="black"/>
<path d="M166 144.571H155.286V155.286H166V144.571Z" fill="black"/>
<path d="M176.714 144.571H166V155.286H176.714V144.571Z" fill="black"/>
<path d="M208.857 144.571H198.143V155.286H208.857V144.571Z" fill="black"/>
<path d="M219.571 144.571H208.857V155.286H219.571V144.571Z" fill="black"/>
<path d="M241 144.571H230.286V155.286H241V144.571Z" fill="black"/>
<path d="M251.714 144.571H241V155.286H251.714V144.571Z" fill="black"/>
<path d="M294.571 144.571H283.857V155.286H294.571V144.571Z" fill="black"/>
<path d="M305.286 144.571H294.571V155.286H305.286V144.571Z" fill="black"/>
<path d="M316 144.571H305.286V155.286H316V144.571Z" fill="black"/>
<path d="M326.714 144.571H316V155.286H326.714V144.571Z" fill="black"/>
<path d="M337.429 144.571H326.714V155.286H337.429L337.429 144.571Z" fill="black"/>
<path d="M348.143 144.571H337.429L337.429 155.286H348.143V144.571Z" fill="black"/>
<path d="M358.857 144.571H348.143V155.286H358.857V144.571Z" fill="black"/>
<path d="M391 144.571H380.286L380.286 155.286H391V144.571Z" fill="black"/>
<path d="M412.429 144.571H401.714V155.286H412.429V144.571Z" fill="black"/>
<path d="M444.571 144.571H433.857V155.286H444.571V144.571Z" fill="black"/>
<path d="M455.286 144.571H444.571V155.286H455.286V144.571Z" fill="black"/>
<path d="M466 144.571H455.286V155.286H466V144.571Z" fill="black"/>
<path d="M498.143 144.571H487.429V155.286H498.143V144.571Z" fill="black"/>
<path d="M530.286 144.571H519.571L519.571 155.286H530.286V144.571Z" fill="black"/>
<path d="M26.7143 155.286H16V166H26.7143V155.286Z" fill="black"/>
<path d="M48.1429 155.286H37.4286V166H48.1429V155.286Z" fill="black"/>
<path d="M58.8571 155.286H48.1429V166H58.8571V155.286Z" fill="black"/>
<path d="M69.5714 155.286H58.8571V166H69.5714V155.286Z" fill="black"/>
<path d="M101.714 155.286H91V166H101.714V155.286Z" fill="black"/>
<path d="M133.857 155.286H123.143V166H133.857V155.286Z" fill="black"/>
<path d="M144.571 155.286H133.857V166H144.571V155.286Z" fill="black"/>
<path d="M155.286 155.286H144.571V166H155.286V155.286Z" fill="black"/>
<path d="M198.143 155.286H187.429V166H198.143V155.286Z" fill="black"/>
<path d="M208.857 155.286H198.143V166H208.857V155.286Z" fill="black"/>
<path d="M219.571 155.286H208.857V166H219.571V155.286Z" fill="black"/>
<path d="M230.286 155.286H219.571V166H230.286V155.286Z" fill="black"/>
<path d="M241 155.286H230.286V166H241V155.286Z" fill="black"/>
<path d="M251.714 155.286H241V166H251.714V155.286Z" fill="black"/>
<path d="M262.429 155.286H251.714V166H262.429V155.286Z" fill="black"/>
<path d="M305.286 155.286H294.571V166H305.286V155.286Z" fill="black"/>
<path d="M326.714 155.286H316L316 166H326.714V155.286Z" fill="black"/>
<path d="M348.143 155.286H337.429L337.429 166H348.143V155.286Z" fill="black"/>
<path d="M380.286 155.286H369.571V166H380.286L380.286 155.286Z" fill="black"/>
<path d="M391 155.286H380.286L380.286 166H391V155.286Z" fill="black"/>
<path d="M401.714 155.286H391V166H401.714L401.714 155.286Z" fill="black"/>
<path d="M412.429 155.286H401.714L401.714 166H412.429V155.286Z" fill="black"/>
<path d="M433.857 155.286H423.143V166H433.857L433.857 155.286Z" fill="black"/>
<path d="M444.571 155.286H433.857L433.857 166H444.571V155.286Z" fill="black"/>
<path d="M455.286 155.286H444.571V166H455.286V155.286Z" fill="black"/>
<path d="M466 155.286H455.286V166H466V155.286Z" fill="black"/>
<path d="M487.429 155.286H476.714V166H487.429L487.429 155.286Z" fill="black"/>
<path d="M498.143 155.286H487.429L487.429 166H498.143V155.286Z" fill="black"/>
<path d="M519.571 155.286H508.857V166H519.571L519.571 155.286Z" fill="black"/>
<path d="M541 155.286H530.286L530.286 166H541V155.286Z" fill="black"/>
<path d="M37.4286 166H26.7143V176.714H37.4286V166Z" fill="black"/>
<path d="M48.1429 166H37.4286V176.714H48.1429V166Z" fill="black"/>
<path d="M91 166H80.2857V176.714H91V166Z" fill="black"/>
<path d="M112.429 166H101.714V176.714H112.429V166Z" fill="black"/>
<path d="M144.571 166H133.857V176.714H144.571V166Z" fill="black"/>
<path d="M187.429 166H176.714V176.714H187.429V166Z" fill="black"/>
<path d="M198.143 166H187.429V176.714H198.143V166Z" fill="black"/>
<path d="M241 166H230.286V176.714H241V166Z" fill="black"/>
<path d="M262.429 166H251.714V176.714H262.429V166Z" fill="black"/>
<path d="M273.143 166H262.429V176.714H273.143V166Z" fill="black"/>
<path d="M283.857 166H273.143V176.714H283.857V166Z" fill="black"/>
<path d="M294.571 166H283.857V176.714H294.571V166Z" fill="black"/>
<path d="M316 166H305.286V176.714H316L316 166Z" fill="black"/>
<path d="M326.714 166H316L316 176.714H326.714V166Z" fill="black"/>
<path d="M337.429 166H326.714V176.714H337.429L337.429 166Z" fill="black"/>
<path d="M348.143 166H337.429L337.429 176.714H348.143V166Z" fill="black"/>
<path d="M358.857 166H348.143V176.714H358.857V166Z" fill="black"/>
<path d="M380.286 166H369.571V176.714H380.286V166Z" fill="black"/>
<path d="M401.714 166H391L391 176.714H401.714V166Z" fill="black"/>
<path d="M455.286 166H444.571L444.571 176.714H455.286V166Z" fill="black"/>
<path d="M466 166H455.286V176.714H466V166Z" fill="black"/>
<path d="M487.429 166H476.714V176.714H487.429V166Z" fill="black"/>
<path d="M541 166H530.286V176.714H541V166Z" fill="black"/>
<path d="M48.1429 176.714H37.4286V187.429H48.1429V176.714Z" fill="black"/>
<path d="M112.429 176.714H101.714V187.429H112.429V176.714Z" fill="black"/>
<path d="M144.571 176.714H133.857V187.429H144.571V176.714Z" fill="black"/>
<path d="M166 176.714H155.286V187.429H166V176.714Z" fill="black"/>
<path d="M176.714 176.714H166V187.429H176.714V176.714Z" fill="black"/>
<path d="M187.429 176.714H176.714V187.429H187.429V176.714Z" fill="black"/>
<path d="M230.286 176.714H219.571V187.429H230.286V176.714Z" fill="black"/>
<path d="M251.714 176.714H241V187.429H251.714V176.714Z" fill="black"/>
<path d="M273.143 176.714H262.429V187.429H273.143V176.714Z" fill="black"/>
<path d="M337.429 176.714H326.714V187.429H337.429V176.714Z" fill="black"/>
<path d="M348.143 176.714H337.429V187.429H348.143V176.714Z" fill="black"/>
<path d="M358.857 176.714H348.143V187.429H358.857V176.714Z" fill="black"/>
<path d="M369.571 176.714H358.857V187.429H369.571V176.714Z" fill="black"/>
<path d="M380.286 176.714H369.571V187.429H380.286V176.714Z" fill="black"/>
<path d="M391 176.714H380.286V187.429H391L391 176.714Z" fill="black"/>
<path d="M401.714 176.714H391L391 187.429H401.714V176.714Z" fill="black"/>
<path d="M423.143 176.714H412.429V187.429H423.143V176.714Z" fill="black"/>
<path d="M433.857 176.714H423.143V187.429H433.857V176.714Z" fill="black"/>
<path d="M519.571 176.714H508.857V187.429H519.571V176.714Z" fill="black"/>
<path d="M530.286 176.714H519.571V187.429H530.286L530.286 176.714Z" fill="black"/>
<path d="M541 176.714H530.286L530.286 187.429H541V176.714Z" fill="black"/>
<path d="M48.1429 187.429H37.4286V198.143H48.1429V187.429Z" fill="black"/>
<path d="M58.8571 187.429H48.1429V198.143H58.8571V187.429Z" fill="black"/>
<path d="M91 187.429H80.2857V198.143H91V187.429Z" fill="black"/>
<path d="M112.429 187.429H101.714V198.143H112.429V187.429Z" fill="black"/>
<path d="M133.857 187.429H123.143V198.143H133.857V187.429Z" fill="black"/>
<path d="M144.571 187.429H133.857V198.143H144.571V187.429Z" fill="black"/>
<path d="M176.714 187.429H166V198.143H176.714V187.429Z" fill="black"/>
<path d="M198.143 187.429H187.429V198.143H198.143V187.429Z" fill="black"/>
<path d="M219.571 187.429H208.857V198.143H219.571V187.429Z" fill="black"/>
<path d="M241 187.429H230.286V198.143H241V187.429Z" fill="black"/>
<path d="M251.714 187.429H241V198.143H251.714V187.429Z" fill="black"/>
<path d="M262.429 187.429H251.714V198.143H262.429V187.429Z" fill="black"/>
<path d="M273.143 187.429H262.429V198.143H273.143V187.429Z" fill="black"/>
<path d="M283.857 187.429H273.143V198.143H283.857V187.429Z" fill="black"/>
<path d="M294.571 187.429H283.857V198.143H294.571V187.429Z" fill="black"/>
<path d="M305.286 187.429H294.571V198.143H305.286V187.429Z" fill="black"/>
<path d="M326.714 187.429H316V198.143H326.714V187.429Z" fill="black"/>
<path d="M337.429 187.429H326.714V198.143H337.429V187.429Z" fill="black"/>
<path d="M358.857 187.429H348.143L348.143 198.143H358.857V187.429Z" fill="black"/>
<path d="M380.286 187.429H369.571V198.143H380.286V187.429Z" fill="black"/>
<path d="M401.714 187.429H391L391 198.143H401.714V187.429Z" fill="black"/>
<path d="M423.143 187.429H412.429V198.143H423.143V187.429Z" fill="black"/>
<path d="M444.571 187.429H433.857L433.857 198.143H444.571V187.429Z" fill="black"/>
<path d="M455.286 187.429H444.571V198.143H455.286V187.429Z" fill="black"/>
<path d="M466 187.429H455.286V198.143H466V187.429Z" fill="black"/>
<path d="M476.714 187.429H466V198.143H476.714V187.429Z" fill="black"/>
<path d="M498.143 187.429H487.429V198.143H498.143V187.429Z" fill="black"/>
<path d="M508.857 187.429H498.143V198.143H508.857L508.857 187.429Z" fill="black"/>
<path d="M530.286 187.429H519.571L519.571 198.143H530.286V187.429Z" fill="black"/>
<path d="M541 187.429H530.286V198.143H541V187.429Z" fill="black"/>
<path d="M26.7143 198.143H16V208.857H26.7143V198.143Z" fill="black"/>
<path d="M37.4286 198.143H26.7143V208.857H37.4286V198.143Z" fill="black"/>
<path d="M48.1429 198.143H37.4286V208.857H48.1429V198.143Z" fill="black"/>
<path d="M58.8571 198.143H48.1429V208.857H58.8571V198.143Z" fill="black"/>
<path d="M80.2857 198.143H69.5714V208.857H80.2857V198.143Z" fill="black"/>
<path d="M133.857 198.143H123.143V208.857H133.857V198.143Z" fill="black"/>
<path d="M144.571 198.143H133.857V208.857H144.571V198.143Z" fill="black"/>
<path d="M155.286 198.143H144.571V208.857H155.286V198.143Z" fill="black"/>
<path d="M176.714 198.143H166V208.857H176.714V198.143Z" fill="black"/>
<path d="M208.857 198.143H198.143V208.857H208.857V198.143Z" fill="black"/>
<path d="M230.286 198.143H219.571V208.857H230.286V198.143Z" fill="black"/>
<path d="M273.143 198.143H262.429V208.857H273.143V198.143Z" fill="black"/>
<path d="M283.857 198.143H273.143V208.857H283.857V198.143Z" fill="black"/>
<path d="M305.286 198.143H294.571V208.857H305.286V198.143Z" fill="black"/>
<path d="M326.714 198.143H316V208.857H326.714V198.143Z" fill="black"/>
<path d="M348.143 198.143H337.429L337.429 208.857H348.143L348.143 198.143Z" fill="black"/>
<path d="M358.857 198.143H348.143L348.143 208.857H358.857V198.143Z" fill="black"/>
<path d="M369.571 198.143H358.857V208.857H369.571V198.143Z" fill="black"/>
<path d="M380.286 198.143H369.571V208.857H380.286V198.143Z" fill="black"/>
<path d="M391 198.143H380.286V208.857H391L391 198.143Z" fill="black"/>
<path d="M401.714 198.143H391L391 208.857H401.714V198.143Z" fill="black"/>
<path d="M444.571 198.143H433.857V208.857H444.571V198.143Z" fill="black"/>
<path d="M455.286 198.143H444.571V208.857H455.286V198.143Z" fill="black"/>
<path d="M466 198.143H455.286V208.857H466V198.143Z" fill="black"/>
<path d="M476.714 198.143H466V208.857H476.714V198.143Z" fill="black"/>
<path d="M487.429 198.143H476.714V208.857H487.429L487.429 198.143Z" fill="black"/>
<path d="M498.143 198.143H487.429L487.429 208.857H498.143V198.143Z" fill="black"/>
<path d="M508.857 198.143H498.143V208.857H508.857V198.143Z" fill="black"/>
<path d="M519.571 198.143H508.857V208.857H519.571L519.571 198.143Z" fill="black"/>
<path d="M530.286 198.143H519.571L519.571 208.857H530.286V198.143Z" fill="black"/>
<path d="M541 198.143H530.286V208.857H541V198.143Z" fill="black"/>
<path d="M26.7143 208.857H16V219.571H26.7143V208.857Z" fill="black"/>
<path d="M37.4286 208.857H26.7143V219.571H37.4286V208.857Z" fill="black"/>
<path d="M48.1429 208.857H37.4286V219.571H48.1429V208.857Z" fill="black"/>
<path d="M58.8571 208.857H48.1429V219.571H58.8571V208.857Z" fill="black"/>
<path d="M91 208.857H80.2857V219.571H91V208.857Z" fill="black"/>
<path d="M101.714 208.857H91V219.571H101.714V208.857Z" fill="black"/>
<path d="M112.429 208.857H101.714V219.571H112.429V208.857Z" fill="black"/>
<path d="M123.143 208.857H112.429V219.571H123.143V208.857Z" fill="black"/>
<path d="M144.571 208.857H133.857V219.571H144.571V208.857Z" fill="black"/>
<path d="M155.286 208.857H144.571V219.571H155.286V208.857Z" fill="black"/>
<path d="M166 208.857H155.286V219.571H166V208.857Z" fill="black"/>
<path d="M198.143 208.857H187.429V219.571H198.143V208.857Z" fill="black"/>
<path d="M230.286 208.857H219.571V219.571H230.286V208.857Z" fill="black"/>
<path d="M241 208.857H230.286V219.571H241V208.857Z" fill="black"/>
<path d="M251.714 208.857H241V219.571H251.714V208.857Z" fill="black"/>
<path d="M262.429 208.857H251.714V219.571H262.429V208.857Z" fill="black"/>
<path d="M273.143 208.857H262.429V219.571H273.143V208.857Z" fill="black"/>
<path d="M294.571 208.857H283.857V219.571H294.571V208.857Z" fill="black"/>
<path d="M305.286 208.857H294.571V219.571H305.286V208.857Z" fill="black"/>
<path d="M337.429 208.857H326.714V219.571H337.429L337.429 208.857Z" fill="black"/>
<path d="M348.143 208.857H337.429L337.429 219.571H348.143V208.857Z" fill="black"/>
<path d="M358.857 208.857H348.143V219.571H358.857V208.857Z" fill="black"/>
<path d="M369.571 208.857H358.857V219.571H369.571V208.857Z" fill="black"/>
<path d="M380.286 208.857H369.571V219.571H380.286V208.857Z" fill="black"/>
<path d="M391 208.857H380.286V219.571H391V208.857Z" fill="black"/>
<path d="M401.714 208.857H391V219.571H401.714V208.857Z" fill="black"/>
<path d="M412.429 208.857H401.714V219.571H412.429V208.857Z" fill="black"/>
<path d="M423.143 208.857H412.429V219.571H423.143V208.857Z" fill="black"/>
<path d="M455.286 208.857H444.571L444.571 219.571H455.286V208.857Z" fill="black"/>
<path d="M466 208.857H455.286V219.571H466V208.857Z" fill="black"/>
<path d="M487.429 208.857H476.714L476.714 219.571H487.429V208.857Z" fill="black"/>
<path d="M498.143 208.857H487.429V219.571H498.143V208.857Z" fill="black"/>
<path d="M508.857 208.857H498.143V219.571H508.857V208.857Z" fill="black"/>
<path d="M519.571 208.857H508.857V219.571H519.571V208.857Z" fill="black"/>
<path d="M541 208.857H530.286L530.286 219.571H541V208.857Z" fill="black"/>
<path d="M58.8571 219.571H48.1429V230.286H58.8571V219.571Z" fill="black"/>
<path d="M112.429 219.571H101.714V230.286H112.429V219.571Z" fill="black"/>
<path d="M123.143 219.571H112.429V230.286H123.143V219.571Z" fill="black"/>
<path d="M166 219.571H155.286V230.286H166V219.571Z" fill="black"/>
<path d="M176.714 219.571H166V230.286H176.714V219.571Z" fill="black"/>
<path d="M187.429 219.571H176.714V230.286H187.429V219.571Z" fill="black"/>
<path d="M219.571 219.571H208.857V230.286H219.571V219.571Z" fill="black"/>
<path d="M230.286 219.571H219.571V230.286H230.286V219.571Z" fill="black"/>
<path d="M241 219.571H230.286V230.286H241V219.571Z" fill="black"/>
<path d="M251.714 219.571H241V230.286H251.714V219.571Z" fill="black"/>
<path d="M262.429 219.571H251.714V230.286H262.429V219.571Z" fill="black"/>
<path d="M273.143 219.571H262.429V230.286H273.143V219.571Z" fill="black"/>
<path d="M294.571 219.571H283.857V230.286H294.571V219.571Z" fill="black"/>
<path d="M326.714 219.571H316V230.286H326.714V219.571Z" fill="black"/>
<path d="M337.429 219.571H326.714V230.286H337.429V219.571Z" fill="black"/>
<path d="M348.143 219.571H337.429V230.286H348.143V219.571Z" fill="black"/>
<path d="M380.286 219.571H369.571V230.286H380.286V219.571Z" fill="black"/>
<path d="M391 219.571H380.286V230.286H391V219.571Z" fill="black"/>
<path d="M412.429 219.571H401.714L401.714 230.286H412.429V219.571Z" fill="black"/>
<path d="M423.143 219.571H412.429V230.286H423.143V219.571Z" fill="black"/>
<path d="M476.714 219.571H466L466 230.286H476.714L476.714 219.571Z" fill="black"/>
<path d="M498.143 219.571H487.429L487.429 230.286H498.143V219.571Z" fill="black"/>
<path d="M508.857 219.571H498.143V230.286H508.857V219.571Z" fill="black"/>
<path d="M69.5714 230.286H58.8571V241H69.5714V230.286Z" fill="black"/>
<path d="M91 230.286H80.2857V241H91V230.286Z" fill="black"/>
<path d="M101.714 230.286H91V241H101.714V230.286Z" fill="black"/>
<path d="M112.429 230.286H101.714V241H112.429V230.286Z" fill="black"/>
<path d="M133.857 230.286H123.143V241H133.857V230.286Z" fill="black"/>
<path d="M176.714 230.286H166V241H176.714V230.286Z" fill="black"/>
<path d="M187.429 230.286H176.714V241H187.429V230.286Z" fill="black"/>
<path d="M219.571 230.286H208.857V241H219.571V230.286Z" fill="black"/>
<path d="M241 230.286H230.286V241H241V230.286Z" fill="black"/>
<path d="M283.857 230.286H273.143V241H283.857V230.286Z" fill="black"/>
<path d="M294.571 230.286H283.857V241H294.571V230.286Z" fill="black"/>
<path d="M305.286 230.286H294.571V241H305.286V230.286Z" fill="black"/>
<path d="M326.714 230.286H316V241H326.714V230.286Z" fill="black"/>
<path d="M358.857 230.286H348.143L348.143 241H358.857V230.286Z" fill="black"/>
<path d="M401.714 230.286H391L391 241H401.714L401.714 230.286Z" fill="black"/>
<path d="M412.429 230.286H401.714L401.714 241H412.429V230.286Z" fill="black"/>
<path d="M423.143 230.286H412.429V241H423.143V230.286Z" fill="black"/>
<path d="M487.429 230.286H476.714L476.714 241H487.429L487.429 230.286Z" fill="black"/>
<path d="M508.857 230.286H498.143V241H508.857V230.286Z" fill="black"/>
<path d="M530.286 230.286H519.571V241H530.286V230.286Z" fill="black"/>
<path d="M541 230.286H530.286V241H541V230.286Z" fill="black"/>
<path d="M48.1429 241H37.4286V251.714H48.1429V241Z" fill="black"/>
<path d="M80.2857 241H69.5714V251.714H80.2857V241Z" fill="black"/>
<path d="M101.714 241H91V251.714H101.714V241Z" fill="black"/>
<path d="M133.857 241H123.143V251.714H133.857V241Z" fill="black"/>
<path d="M144.571 241H133.857V251.714H144.571V241Z" fill="black"/>
<path d="M166 241H155.286V251.714H166V241Z" fill="black"/>
<path d="M208.857 241H198.143V251.714H208.857V241Z" fill="black"/>
<path d="M230.286 241H219.571V251.714H230.286V241Z" fill="black"/>
<path d="M241 241H230.286V251.714H241V241Z" fill="black"/>
<path d="M283.857 241H273.143V251.714H283.857V241Z" fill="black"/>
<path d="M294.571 241H283.857V251.714H294.571V241Z" fill="black"/>
<path d="M305.286 241H294.571V251.714H305.286V241Z" fill="black"/>
<path d="M326.714 241H316V251.714H326.714V241Z" fill="black"/>
<path d="M380.286 241H369.571V251.714H380.286V241Z" fill="black"/>
<path d="M433.857 241H423.143L423.143 251.714H433.857V241Z" fill="black"/>
<path d="M444.571 241H433.857V251.714H444.571V241Z" fill="black"/>
<path d="M455.286 241H444.571V251.714H455.286V241Z" fill="black"/>
<path d="M498.143 241H487.429L487.429 251.714H498.143V241Z" fill="black"/>
<path d="M508.857 241H498.143V251.714H508.857V241Z" fill="black"/>
<path d="M519.571 241H508.857V251.714H519.571L519.571 241Z" fill="black"/>
<path d="M37.4286 251.714H26.7143V262.429H37.4286V251.714Z" fill="black"/>
<path d="M48.1429 251.714H37.4286V262.429H48.1429V251.714Z" fill="black"/>
<path d="M69.5714 251.714H58.8571V262.429H69.5714V251.714Z" fill="black"/>
<path d="M80.2857 251.714H69.5714V262.429H80.2857V251.714Z" fill="black"/>
<path d="M91 251.714H80.2857V262.429H91V251.714Z" fill="black"/>
<path d="M101.714 251.714H91V262.429H101.714V251.714Z" fill="black"/>
<path d="M112.429 251.714H101.714V262.429H112.429V251.714Z" fill="black"/>
<path d="M123.143 251.714H112.429V262.429H123.143V251.714Z" fill="black"/>
<path d="M133.857 251.714H123.143V262.429H133.857V251.714Z" fill="black"/>
<path d="M144.571 251.714H133.857V262.429H144.571V251.714Z" fill="black"/>
<path d="M166 251.714H155.286V262.429H166V251.714Z" fill="black"/>
<path d="M187.429 251.714H176.714V262.429H187.429V251.714Z" fill="black"/>
<path d="M219.571 251.714H208.857V262.429H219.571V251.714Z" fill="black"/>
<path d="M251.714 251.714H241V262.429H251.714V251.714Z" fill="black"/>
<path d="M262.429 251.714H251.714V262.429H262.429V251.714Z" fill="black"/>
<path d="M273.143 251.714H262.429V262.429H273.143V251.714Z" fill="black"/>
<path d="M283.857 251.714H273.143V262.429H283.857V251.714Z" fill="black"/>
<path d="M294.571 251.714H283.857V262.429H294.571V251.714Z" fill="black"/>
<path d="M305.286 251.714H294.571V262.429H305.286V251.714Z" fill="black"/>
<path d="M326.714 251.714H316V262.429H326.714V251.714Z" fill="black"/>
<path d="M348.143 251.714H337.429V262.429H348.143V251.714Z" fill="black"/>
<path d="M369.571 251.714H358.857V262.429H369.571V251.714Z" fill="black"/>
<path d="M380.286 251.714H369.571V262.429H380.286V251.714Z" fill="black"/>
<path d="M412.429 251.714H401.714V262.429H412.429V251.714Z" fill="black"/>
<path d="M455.286 251.714H444.571L444.571 262.429H455.286V251.714Z" fill="black"/>
<path d="M466 251.714H455.286V262.429H466V251.714Z" fill="black"/>
<path d="M476.714 251.714H466V262.429H476.714V251.714Z" fill="black"/>
<path d="M487.429 251.714H476.714V262.429H487.429L487.429 251.714Z" fill="black"/>
<path d="M498.143 251.714H487.429L487.429 262.429H498.143V251.714Z" fill="black"/>
<path d="M508.857 251.714H498.143V262.429H508.857V251.714Z" fill="black"/>
<path d="M530.286 251.714H519.571L519.571 262.429H530.286V251.714Z" fill="black"/>
<path d="M48.1429 262.429H37.4286V273.143H48.1429V262.429Z" fill="black"/>
<path d="M69.5714 262.429H58.8571V273.143H69.5714V262.429Z" fill="black"/>
<path d="M112.429 262.429H101.714V273.143H112.429V262.429Z" fill="black"/>
<path d="M123.143 262.429H112.429V273.143H123.143V262.429Z" fill="black"/>
<path d="M133.857 262.429H123.143V273.143H133.857V262.429Z" fill="black"/>
<path d="M155.286 262.429H144.571V273.143H155.286V262.429Z" fill="black"/>
<path d="M230.286 262.429H219.571V273.143H230.286V262.429Z" fill="black"/>
<path d="M241 262.429H230.286V273.143H241V262.429Z" fill="black"/>
<path d="M251.714 262.429H241V273.143H251.714V262.429Z" fill="black"/>
<path d="M262.429 262.429H251.714V273.143H262.429V262.429Z" fill="black"/>
<path d="M305.286 262.429H294.571V273.143H305.286V262.429Z" fill="black"/>
<path d="M326.714 262.429H316V273.143H326.714V262.429Z" fill="black"/>
<path d="M337.429 262.429H326.714V273.143H337.429L337.429 262.429Z" fill="black"/>
<path d="M380.286 262.429H369.571V273.143H380.286V262.429Z" fill="black"/>
<path d="M412.429 262.429H401.714V273.143H412.429V262.429Z" fill="black"/>
<path d="M433.857 262.429H423.143V273.143H433.857V262.429Z" fill="black"/>
<path d="M444.571 262.429H433.857V273.143H444.571L444.571 262.429Z" fill="black"/>
<path d="M455.286 262.429H444.571L444.571 273.143H455.286V262.429Z" fill="black"/>
<path d="M498.143 262.429H487.429L487.429 273.143H498.143V262.429Z" fill="black"/>
<path d="M530.286 262.429H519.571V273.143H530.286V262.429Z" fill="black"/>
<path d="M541 262.429H530.286V273.143H541V262.429Z" fill="black"/>
<path d="M37.4286 273.143H26.7143V283.857H37.4286V273.143Z" fill="black"/>
<path d="M58.8571 273.143H48.1429V283.857H58.8571V273.143Z" fill="black"/>
<path d="M69.5714 273.143H58.8571V283.857H69.5714V273.143Z" fill="black"/>
<path d="M91 273.143H80.2857V283.857H91V273.143Z" fill="black"/>
<path d="M112.429 273.143H101.714V283.857H112.429V273.143Z" fill="black"/>
<path d="M123.143 273.143H112.429V283.857H123.143V273.143Z" fill="black"/>
<path d="M144.571 273.143H133.857V283.857H144.571V273.143Z" fill="black"/>
<path d="M155.286 273.143H144.571V283.857H155.286V273.143Z" fill="black"/>
<path d="M208.857 273.143H198.143V283.857H208.857V273.143Z" fill="black"/>
<path d="M219.571 273.143H208.857V283.857H219.571V273.143Z" fill="black"/>
<path d="M230.286 273.143H219.571V283.857H230.286V273.143Z" fill="black"/>
<path d="M251.714 273.143H241V283.857H251.714V273.143Z" fill="black"/>
<path d="M262.429 273.143H251.714V283.857H262.429V273.143Z" fill="black"/>
<path d="M283.857 273.143H273.143V283.857H283.857V273.143Z" fill="black"/>
<path d="M305.286 273.143H294.571V283.857H305.286V273.143Z" fill="black"/>
<path d="M337.429 273.143H326.714V283.857H337.429V273.143Z" fill="black"/>
<path d="M358.857 273.143H348.143V283.857H358.857V273.143Z" fill="black"/>
<path d="M369.571 273.143H358.857V283.857H369.571V273.143Z" fill="black"/>
<path d="M380.286 273.143H369.571V283.857H380.286V273.143Z" fill="black"/>
<path d="M391 273.143H380.286V283.857H391V273.143Z" fill="black"/>
<path d="M433.857 273.143H423.143V283.857H433.857V273.143Z" fill="black"/>
<path d="M455.286 273.143H444.571L444.571 283.857H455.286V273.143Z" fill="black"/>
<path d="M476.714 273.143H466V283.857H476.714V273.143Z" fill="black"/>
<path d="M498.143 273.143H487.429V283.857H498.143V273.143Z" fill="black"/>
<path d="M37.4286 283.857H26.7143V294.571H37.4286V283.857Z" fill="black"/>
<path d="M69.5714 283.857H58.8571V294.571H69.5714V283.857Z" fill="black"/>
<path d="M112.429 283.857H101.714V294.571H112.429V283.857Z" fill="black"/>
<path d="M123.143 283.857H112.429V294.571H123.143V283.857Z" fill="black"/>
<path d="M144.571 283.857H133.857V294.571H144.571V283.857Z" fill="black"/>
<path d="M155.286 283.857H144.571V294.571H155.286V283.857Z" fill="black"/>
<path d="M166 283.857H155.286V294.571H166V283.857Z" fill="black"/>
<path d="M176.714 283.857H166V294.571H176.714V283.857Z" fill="black"/>
<path d="M187.429 283.857H176.714V294.571H187.429V283.857Z" fill="black"/>
<path d="M230.286 283.857H219.571V294.571H230.286V283.857Z" fill="black"/>
<path d="M241 283.857H230.286V294.571H241V283.857Z" fill="black"/>
<path d="M251.714 283.857H241V294.571H251.714V283.857Z" fill="black"/>
<path d="M262.429 283.857H251.714V294.571H262.429V283.857Z" fill="black"/>
<path d="M305.286 283.857H294.571V294.571H305.286V283.857Z" fill="black"/>
<path d="M326.714 283.857H316V294.571H326.714V283.857Z" fill="black"/>
<path d="M401.714 283.857H391L391 294.571H401.714V283.857Z" fill="black"/>
<path d="M423.143 283.857H412.429V294.571H423.143L423.143 283.857Z" fill="black"/>
<path d="M455.286 283.857H444.571V294.571H455.286V283.857Z" fill="black"/>
<path d="M498.143 283.857H487.429V294.571H498.143V283.857Z" fill="black"/>
<path d="M519.571 283.857H508.857V294.571H519.571V283.857Z" fill="black"/>
<path d="M530.286 283.857H519.571V294.571H530.286V283.857Z" fill="black"/>
<path d="M541 283.857H530.286V294.571H541V283.857Z" fill="black"/>
<path d="M37.4286 294.571H26.7143V305.286H37.4286V294.571Z" fill="black"/>
<path d="M69.5714 294.571H58.8571V305.286H69.5714V294.571Z" fill="black"/>
<path d="M80.2857 294.571H69.5714V305.286H80.2857V294.571Z" fill="black"/>
<path d="M91 294.571H80.2857V305.286H91V294.571Z" fill="black"/>
<path d="M101.714 294.571H91V305.286H101.714V294.571Z" fill="black"/>
<path d="M112.429 294.571H101.714V305.286H112.429V294.571Z" fill="black"/>
<path d="M166 294.571H155.286V305.286H166V294.571Z" fill="black"/>
<path d="M176.714 294.571H166V305.286H176.714V294.571Z" fill="black"/>
<path d="M187.429 294.571H176.714V305.286H187.429V294.571Z" fill="black"/>
<path d="M198.143 294.571H187.429V305.286H198.143V294.571Z" fill="black"/>
<path d="M219.571 294.571H208.857V305.286H219.571V294.571Z" fill="black"/>
<path d="M241 294.571H230.286V305.286H241V294.571Z" fill="black"/>
<path d="M251.714 294.571H241V305.286H251.714V294.571Z" fill="black"/>
<path d="M262.429 294.571H251.714V305.286H262.429V294.571Z" fill="black"/>
<path d="M273.143 294.571H262.429V305.286H273.143V294.571Z" fill="black"/>
<path d="M283.857 294.571H273.143V305.286H283.857V294.571Z" fill="black"/>
<path d="M294.571 294.571H283.857V305.286H294.571V294.571Z" fill="black"/>
<path d="M305.286 294.571H294.571V305.286H305.286V294.571Z" fill="black"/>
<path d="M326.714 294.571H316V305.286H326.714V294.571Z" fill="black"/>
<path d="M391 294.571H380.286V305.286H391L391 294.571Z" fill="black"/>
<path d="M401.714 294.571H391L391 305.286H401.714V294.571Z" fill="black"/>
<path d="M423.143 294.571H412.429V305.286H423.143V294.571Z" fill="black"/>
<path d="M444.571 294.571H433.857V305.286H444.571L444.571 294.571Z" fill="black"/>
<path d="M455.286 294.571H444.571L444.571 305.286H455.286V294.571Z" fill="black"/>
<path d="M466 294.571H455.286V305.286H466V294.571Z" fill="black"/>
<path d="M476.714 294.571H466V305.286H476.714V294.571Z" fill="black"/>
<path d="M487.429 294.571H476.714V305.286H487.429L487.429 294.571Z" fill="black"/>
<path d="M498.143 294.571H487.429L487.429 305.286H498.143V294.571Z" fill="black"/>
<path d="M519.571 294.571H508.857V305.286H519.571V294.571Z" fill="black"/>
<path d="M69.5714 305.286H58.8571V316H69.5714V305.286Z" fill="black"/>
<path d="M112.429 305.286H101.714V316H112.429V305.286Z" fill="black"/>
<path d="M133.857 305.286H123.143V316H133.857V305.286Z" fill="black"/>
<path d="M166 305.286H155.286V316H166V305.286Z" fill="black"/>
<path d="M176.714 305.286H166V316H176.714V305.286Z" fill="black"/>
<path d="M187.429 305.286H176.714V316H187.429V305.286Z" fill="black"/>
<path d="M198.143 305.286H187.429V316H198.143V305.286Z" fill="black"/>
<path d="M241 305.286H230.286V316H241V305.286Z" fill="black"/>
<path d="M251.714 305.286H241V316H251.714V305.286Z" fill="black"/>
<path d="M262.429 305.286H251.714V316H262.429V305.286Z" fill="black"/>
<path d="M305.286 305.286H294.571V316H305.286V305.286Z" fill="black"/>
<path d="M316 305.286H305.286V316H316L316 305.286Z" fill="black"/>
<path d="M337.429 305.286H326.714V316H337.429V305.286Z" fill="black"/>
<path d="M348.143 305.286H337.429V316H348.143V305.286Z" fill="black"/>
<path d="M358.857 305.286H348.143V316H358.857V305.286Z" fill="black"/>
<path d="M401.714 305.286H391L391 316H401.714V305.286Z" fill="black"/>
<path d="M423.143 305.286H412.429V316H423.143V305.286Z" fill="black"/>
<path d="M444.571 305.286H433.857V316H444.571V305.286Z" fill="black"/>
<path d="M455.286 305.286H444.571V316H455.286V305.286Z" fill="black"/>
<path d="M498.143 305.286H487.429L487.429 316H498.143V305.286Z" fill="black"/>
<path d="M80.2857 316L69.5714 316V326.714H80.2857V316Z" fill="black"/>
<path d="M91 316H80.2857V326.714H91V316Z" fill="black"/>
<path d="M101.714 316L91 316V326.714H101.714V316Z" fill="black"/>
<path d="M112.429 316H101.714V326.714H112.429V316Z" fill="black"/>
<path d="M123.143 316H112.429V326.714H123.143V316Z" fill="black"/>
<path d="M133.857 316H123.143V326.714H133.857V316Z" fill="black"/>
<path d="M198.143 316H187.429V326.714H198.143V316Z" fill="black"/>
<path d="M219.571 316H208.857V326.714H219.571V316Z" fill="black"/>
<path d="M230.286 316L219.571 316V326.714H230.286V316Z" fill="black"/>
<path d="M241 316H230.286V326.714H241V316Z" fill="black"/>
<path d="M316 316H305.286V326.714H316V316Z" fill="black"/>
<path d="M337.429 316H326.714V326.714H337.429V316Z" fill="black"/>
<path d="M369.571 316L358.857 316L358.857 326.714H369.571V316Z" fill="black"/>
<path d="M423.143 316H412.429V326.714H423.143V316Z" fill="black"/>
<path d="M433.857 316H423.143V326.714H433.857L433.857 316Z" fill="black"/>
<path d="M444.571 316H433.857L433.857 326.714H444.571V316Z" fill="black"/>
<path d="M476.714 316H466V326.714H476.714V316Z" fill="black"/>
<path d="M487.429 316L476.714 316V326.714H487.429L487.429 316Z" fill="black"/>
<path d="M498.143 316H487.429L487.429 326.714H498.143V316Z" fill="black"/>
<path d="M508.857 316L498.143 316V326.714H508.857V316Z" fill="black"/>
<path d="M530.286 316H519.571V326.714H530.286V316Z" fill="black"/>
<path d="M541 316H530.286V326.714H541V316Z" fill="black"/>
<path d="M80.2857 326.714H69.5714V337.429H80.2857V326.714Z" fill="black"/>
<path d="M123.143 326.714H112.429V337.429H123.143V326.714Z" fill="black"/>
<path d="M133.857 326.714H123.143V337.429H133.857V326.714Z" fill="black"/>
<path d="M144.571 326.714H133.857V337.429H144.571V326.714Z" fill="black"/>
<path d="M155.286 326.714H144.571V337.429H155.286V326.714Z" fill="black"/>
<path d="M187.429 326.714H176.714V337.429H187.429V326.714Z" fill="black"/>
<path d="M198.143 326.714H187.429V337.429H198.143V326.714Z" fill="black"/>
<path d="M208.857 326.714H198.143V337.429H208.857V326.714Z" fill="black"/>
<path d="M230.286 326.714H219.571V337.429H230.286V326.714Z" fill="black"/>
<path d="M251.714 326.714H241V337.429H251.714V326.714Z" fill="black"/>
<path d="M262.429 326.714H251.714V337.429H262.429V326.714Z" fill="black"/>
<path d="M273.143 326.714H262.429V337.429H273.143V326.714Z" fill="black"/>
<path d="M283.857 326.714H273.143V337.429H283.857V326.714Z" fill="black"/>
<path d="M305.286 326.714H294.571V337.429H305.286V326.714Z" fill="black"/>
<path d="M337.429 326.714H326.714V337.429H337.429V326.714Z" fill="black"/>
<path d="M358.857 326.714H348.143V337.429H358.857L358.857 326.714Z" fill="black"/>
<path d="M369.571 326.714H358.857L358.857 337.429H369.571V326.714Z" fill="black"/>
<path d="M412.429 326.714H401.714V337.429H412.429V326.714Z" fill="black"/>
<path d="M444.571 326.714H433.857L433.857 337.429H444.571V326.714Z" fill="black"/>
<path d="M466 326.714H455.286V337.429H466L466 326.714Z" fill="black"/>
<path d="M508.857 326.714H498.143V337.429H508.857V326.714Z" fill="black"/>
<path d="M530.286 326.714H519.571V337.429H530.286V326.714Z" fill="black"/>
<path d="M26.7143 337.429H16V348.143H26.7143V337.429Z" fill="black"/>
<path d="M80.2857 337.429H69.5714V348.143H80.2857V337.429Z" fill="black"/>
<path d="M91 337.429L80.2857 337.429V348.143H91V337.429Z" fill="black"/>
<path d="M123.143 337.429H112.429V348.143H123.143V337.429Z" fill="black"/>
<path d="M133.857 337.429H123.143V348.143H133.857V337.429Z" fill="black"/>
<path d="M144.571 337.429H133.857V348.143H144.571V337.429Z" fill="black"/>
<path d="M176.714 337.429L166 337.429V348.143H176.714V337.429Z" fill="black"/>
<path d="M198.143 337.429H187.429V348.143H198.143V337.429Z" fill="black"/>
<path d="M208.857 337.429H198.143V348.143H208.857V337.429Z" fill="black"/>
<path d="M219.571 337.429H208.857V348.143H219.571V337.429Z" fill="black"/>
<path d="M241 337.429H230.286V348.143H241V337.429Z" fill="black"/>
<path d="M251.714 337.429H241V348.143H251.714V337.429Z" fill="black"/>
<path d="M262.429 337.429H251.714V348.143H262.429V337.429Z" fill="black"/>
<path d="M273.143 337.429H262.429V348.143H273.143V337.429Z" fill="black"/>
<path d="M305.286 337.429H294.571V348.143H305.286V337.429Z" fill="black"/>
<path d="M380.286 337.429L369.571 337.429V348.143H380.286V337.429Z" fill="black"/>
<path d="M401.714 337.429L391 337.429V348.143H401.714L401.714 337.429Z" fill="black"/>
<path d="M412.429 337.429H401.714L401.714 348.143H412.429V337.429Z" fill="black"/>
<path d="M433.857 337.429L423.143 337.429V348.143H433.857L433.857 337.429Z" fill="black"/>
<path d="M444.571 337.429H433.857L433.857 348.143H444.571V337.429Z" fill="black"/>
<path d="M455.286 337.429H444.571V348.143H455.286V337.429Z" fill="black"/>
<path d="M487.429 337.429H476.714V348.143H487.429V337.429Z" fill="black"/>
<path d="M498.143 337.429L487.429 337.429V348.143H498.143V337.429Z" fill="black"/>
<path d="M508.857 337.429H498.143V348.143H508.857V337.429Z" fill="black"/>
<path d="M519.571 337.429H508.857V348.143H519.571L519.571 337.429Z" fill="black"/>
<path d="M530.286 337.429H519.571L519.571 348.143H530.286V337.429Z" fill="black"/>
<path d="M26.7143 348.143H16V358.857H26.7143V348.143Z" fill="black"/>
<path d="M58.8571 348.143H48.1429V358.857H58.8571V348.143Z" fill="black"/>
<path d="M69.5714 348.143L58.8571 348.143V358.857H69.5714V348.143Z" fill="black"/>
<path d="M80.2857 348.143H69.5714V358.857H80.2857V348.143Z" fill="black"/>
<path d="M123.143 348.143H112.429V358.857H123.143V348.143Z" fill="black"/>
<path d="M133.857 348.143H123.143V358.857H133.857V348.143Z" fill="black"/>
<path d="M144.571 348.143H133.857V358.857H144.571V348.143Z" fill="black"/>
<path d="M155.286 348.143L144.571 348.143V358.857H155.286V348.143Z" fill="black"/>
<path d="M166 348.143L155.286 348.143V358.857H166V348.143Z" fill="black"/>
<path d="M176.714 348.143H166V358.857H176.714V348.143Z" fill="black"/>
<path d="M198.143 348.143H187.429V358.857H198.143V348.143Z" fill="black"/>
<path d="M208.857 348.143H198.143V358.857H208.857V348.143Z" fill="black"/>
<path d="M219.571 348.143H208.857V358.857H219.571V348.143Z" fill="black"/>
<path d="M251.714 348.143H241V358.857H251.714V348.143Z" fill="black"/>
<path d="M262.429 348.143H251.714V358.857H262.429V348.143Z" fill="black"/>
<path d="M273.143 348.143H262.429V358.857H273.143V348.143Z" fill="black"/>
<path d="M294.571 348.143L283.857 348.143V358.857H294.571V348.143Z" fill="black"/>
<path d="M305.286 348.143H294.571V358.857H305.286V348.143Z" fill="black"/>
<path d="M326.714 348.143H316V358.857H326.714V348.143Z" fill="black"/>
<path d="M337.429 348.143H326.714V358.857H337.429V348.143Z" fill="black"/>
<path d="M348.143 348.143H337.429V358.857H348.143V348.143Z" fill="black"/>
<path d="M358.857 348.143H348.143V358.857H358.857V348.143Z" fill="black"/>
<path d="M369.571 348.143L358.857 348.143V358.857H369.571V348.143Z" fill="black"/>
<path d="M380.286 348.143H369.571V358.857H380.286V348.143Z" fill="black"/>
<path d="M412.429 348.143H401.714L401.714 358.857H412.429V348.143Z" fill="black"/>
<path d="M423.143 348.143H412.429V358.857H423.143L423.143 348.143Z" fill="black"/>
<path d="M444.571 348.143H433.857L433.857 358.857H444.571V348.143Z" fill="black"/>
<path d="M455.286 348.143H444.571V358.857H455.286V348.143Z" fill="black"/>
<path d="M476.714 348.143L466 348.143V358.857H476.714L476.714 348.143Z" fill="black"/>
<path d="M508.857 348.143H498.143V358.857H508.857V348.143Z" fill="black"/>
<path d="M519.571 348.143H508.857V358.857H519.571V348.143Z" fill="black"/>
<path d="M530.286 348.143H519.571V358.857H530.286V348.143Z" fill="black"/>
<path d="M541 348.143L530.286 348.143V358.857H541V348.143Z" fill="black"/>
<path d="M37.4286 358.857L26.7143 358.857V369.571H37.4286V358.857Z" fill="black"/>
<path d="M69.5714 358.857H58.8571V369.571H69.5714V358.857Z" fill="black"/>
<path d="M91 358.857L80.2857 358.857V369.571H91V358.857Z" fill="black"/>
<path d="M123.143 358.857H112.429V369.571H123.143V358.857Z" fill="black"/>
<path d="M144.571 358.857H133.857V369.571H144.571V358.857Z" fill="black"/>
<path d="M166 358.857H155.286V369.571H166V358.857Z" fill="black"/>
<path d="M208.857 358.857H198.143V369.571H208.857V358.857Z" fill="black"/>
<path d="M219.571 358.857H208.857V369.571H219.571V358.857Z" fill="black"/>
<path d="M251.714 358.857H241V369.571H251.714V358.857Z" fill="black"/>
<path d="M273.143 358.857H262.429V369.571H273.143V358.857Z" fill="black"/>
<path d="M316 358.857H305.286V369.571H316L316 358.857Z" fill="black"/>
<path d="M326.714 358.857H316L316 369.571H326.714V358.857Z" fill="black"/>
<path d="M337.429 358.857H326.714V369.571H337.429V358.857Z" fill="black"/>
<path d="M358.857 358.857H348.143L348.143 369.571H358.857V358.857Z" fill="black"/>
<path d="M391 358.857L380.286 358.857L380.286 369.571H391V358.857Z" fill="black"/>
<path d="M423.143 358.857H412.429V369.571H423.143V358.857Z" fill="black"/>
<path d="M444.571 358.857H433.857V369.571H444.571V358.857Z" fill="black"/>
<path d="M455.286 358.857H444.571V369.571H455.286V358.857Z" fill="black"/>
<path d="M508.857 358.857H498.143V369.571H508.857V358.857Z" fill="black"/>
<path d="M541 358.857H530.286L530.286 369.571H541V358.857Z" fill="black"/>
<path d="M26.7143 369.571H16V380.286H26.7143V369.571Z" fill="black"/>
<path d="M37.4286 369.571H26.7143V380.286H37.4286V369.571Z" fill="black"/>
<path d="M69.5714 369.571H58.8571V380.286H69.5714V369.571Z" fill="black"/>
<path d="M101.714 369.571H91V380.286H101.714V369.571Z" fill="black"/>
<path d="M112.429 369.571H101.714V380.286H112.429V369.571Z" fill="black"/>
<path d="M166 369.571H155.286V380.286H166V369.571Z" fill="black"/>
<path d="M208.857 369.571H198.143V380.286H208.857V369.571Z" fill="black"/>
<path d="M219.571 369.571H208.857V380.286H219.571V369.571Z" fill="black"/>
<path d="M230.286 369.571H219.571V380.286H230.286V369.571Z" fill="black"/>
<path d="M241 369.571H230.286V380.286H241V369.571Z" fill="black"/>
<path d="M294.571 369.571H283.857V380.286H294.571V369.571Z" fill="black"/>
<path d="M305.286 369.571H294.571V380.286H305.286V369.571Z" fill="black"/>
<path d="M337.429 369.571H326.714V380.286H337.429V369.571Z" fill="black"/>
<path d="M369.571 369.571H358.857L358.857 380.286H369.571V369.571Z" fill="black"/>
<path d="M380.286 369.571H369.571V380.286H380.286L380.286 369.571Z" fill="black"/>
<path d="M391 369.571H380.286L380.286 380.286H391V369.571Z" fill="black"/>
<path d="M401.714 369.571H391V380.286H401.714V369.571Z" fill="black"/>
<path d="M444.571 369.571H433.857V380.286H444.571V369.571Z" fill="black"/>
<path d="M455.286 369.571H444.571V380.286H455.286V369.571Z" fill="black"/>
<path d="M466 369.571H455.286V380.286H466V369.571Z" fill="black"/>
<path d="M476.714 369.571H466V380.286H476.714V369.571Z" fill="black"/>
<path d="M487.429 369.571H476.714V380.286H487.429V369.571Z" fill="black"/>
<path d="M498.143 369.571H487.429V380.286H498.143V369.571Z" fill="black"/>
<path d="M530.286 369.571H519.571V380.286H530.286L530.286 369.571Z" fill="black"/>
<path d="M541 369.571H530.286L530.286 380.286H541V369.571Z" fill="black"/>
<path d="M48.1429 380.286L37.4286 380.286V391H48.1429V380.286Z" fill="black"/>
<path d="M58.8571 380.286L48.1429 380.286V391H58.8571V380.286Z" fill="black"/>
<path d="M91 380.286L80.2857 380.286V391H91V380.286Z" fill="black"/>
<path d="M112.429 380.286H101.714V391H112.429V380.286Z" fill="black"/>
<path d="M133.857 380.286H123.143V391H133.857V380.286Z" fill="black"/>
<path d="M187.429 380.286H176.714V391H187.429V380.286Z" fill="black"/>
<path d="M198.143 380.286L187.429 380.286V391H198.143V380.286Z" fill="black"/>
<path d="M230.286 380.286H219.571V391H230.286V380.286Z" fill="black"/>
<path d="M262.429 380.286H251.714V391H262.429V380.286Z" fill="black"/>
<path d="M273.143 380.286H262.429V391H273.143V380.286Z" fill="black"/>
<path d="M316 380.286L305.286 380.286V391H316V380.286Z" fill="black"/>
<path d="M326.714 380.286L316 380.286V391H326.714V380.286Z" fill="black"/>
<path d="M337.429 380.286H326.714V391H337.429V380.286Z" fill="black"/>
<path d="M348.143 380.286L337.429 380.286V391H348.143V380.286Z" fill="black"/>
<path d="M369.571 380.286H358.857V391H369.571V380.286Z" fill="black"/>
<path d="M455.286 380.286H444.571L444.571 391H455.286V380.286Z" fill="black"/>
<path d="M466 380.286H455.286V391H466V380.286Z" fill="black"/>
<path d="M476.714 380.286H466V391H476.714V380.286Z" fill="black"/>
<path d="M498.143 380.286H487.429L487.429 391H498.143V380.286Z" fill="black"/>
<path d="M519.571 380.286L508.857 380.286V391H519.571L519.571 380.286Z" fill="black"/>
<path d="M541 380.286H530.286L530.286 391H541V380.286Z" fill="black"/>
<path d="M26.7143 391H16V401.714H26.7143V391Z" fill="black"/>
<path d="M37.4286 391L26.7143 391V401.714H37.4286V391Z" fill="black"/>
<path d="M58.8571 391H48.1429V401.714H58.8571V391Z" fill="black"/>
<path d="M69.5714 391L58.8571 391V401.714H69.5714V391Z" fill="black"/>
<path d="M80.2857 391L69.5714 391V401.714H80.2857V391Z" fill="black"/>
<path d="M101.714 391H91V401.714H101.714V391Z" fill="black"/>
<path d="M112.429 391H101.714V401.714H112.429V391Z" fill="black"/>
<path d="M155.286 391H144.571V401.714H155.286V391Z" fill="black"/>
<path d="M166 391H155.286V401.714H166V391Z" fill="black"/>
<path d="M176.714 391L166 391V401.714H176.714V391Z" fill="black"/>
<path d="M219.571 391L208.857 391V401.714H219.571V391Z" fill="black"/>
<path d="M241 391L230.286 391V401.714H241V391Z" fill="black"/>
<path d="M283.857 391L273.143 391V401.714H283.857V391Z" fill="black"/>
<path d="M305.286 391L294.571 391V401.714H305.286V391Z" fill="black"/>
<path d="M326.714 391H316L316 401.714H326.714V391Z" fill="black"/>
<path d="M380.286 391L369.571 391V401.714H380.286V391Z" fill="black"/>
<path d="M391 391H380.286V401.714H391V391Z" fill="black"/>
<path d="M412.429 391H401.714V401.714H412.429V391Z" fill="black"/>
<path d="M433.857 391H423.143V401.714H433.857V391Z" fill="black"/>
<path d="M487.429 391H476.714L476.714 401.714H487.429L487.429 391Z" fill="black"/>
<path d="M498.143 391H487.429L487.429 401.714H498.143V391Z" fill="black"/>
<path d="M508.857 391H498.143V401.714H508.857L508.857 391Z" fill="black"/>
<path d="M541 391H530.286V401.714H541V391Z" fill="black"/>
<path d="M26.7143 401.714H16V412.429H26.7143V401.714Z" fill="black"/>
<path d="M48.1429 401.714H37.4286V412.429H48.1429V401.714Z" fill="black"/>
<path d="M58.8571 401.714H48.1429V412.429H58.8571V401.714Z" fill="black"/>
<path d="M91 401.714H80.2857V412.429H91V401.714Z" fill="black"/>
<path d="M101.714 401.714H91V412.429H101.714V401.714Z" fill="black"/>
<path d="M123.143 401.714L112.429 401.714V412.429H123.143V401.714Z" fill="black"/>
<path d="M133.857 401.714H123.143V412.429H133.857V401.714Z" fill="black"/>
<path d="M144.571 401.714L133.857 401.714V412.429H144.571V401.714Z" fill="black"/>
<path d="M155.286 401.714H144.571V412.429H155.286V401.714Z" fill="black"/>
<path d="M166 401.714H155.286V412.429H166V401.714Z" fill="black"/>
<path d="M176.714 401.714H166V412.429H176.714V401.714Z" fill="black"/>
<path d="M187.429 401.714L176.714 401.714V412.429H187.429V401.714Z" fill="black"/>
<path d="M198.143 401.714H187.429V412.429H198.143V401.714Z" fill="black"/>
<path d="M208.857 401.714L198.143 401.714V412.429H208.857V401.714Z" fill="black"/>
<path d="M230.286 401.714H219.571V412.429H230.286V401.714Z" fill="black"/>
<path d="M262.429 401.714H251.714V412.429H262.429V401.714Z" fill="black"/>
<path d="M273.143 401.714L262.429 401.714V412.429H273.143V401.714Z" fill="black"/>
<path d="M283.857 401.714H273.143V412.429H283.857V401.714Z" fill="black"/>
<path d="M337.429 401.714L326.714 401.714V412.429H337.429V401.714Z" fill="black"/>
<path d="M348.143 401.714H337.429V412.429H348.143V401.714Z" fill="black"/>
<path d="M380.286 401.714H369.571V412.429H380.286V401.714Z" fill="black"/>
<path d="M401.714 401.714H391L391 412.429H401.714L401.714 401.714Z" fill="black"/>
<path d="M412.429 401.714H401.714L401.714 412.429H412.429V401.714Z" fill="black"/>
<path d="M423.143 401.714H412.429V412.429H423.143L423.143 401.714Z" fill="black"/>
<path d="M433.857 401.714H423.143L423.143 412.429H433.857V401.714Z" fill="black"/>
<path d="M466 401.714H455.286V412.429H466V401.714Z" fill="black"/>
<path d="M476.714 401.714L466 401.714V412.429H476.714L476.714 401.714Z" fill="black"/>
<path d="M487.429 401.714H476.714L476.714 412.429H487.429V401.714Z" fill="black"/>
<path d="M508.857 401.714H498.143V412.429H508.857V401.714Z" fill="black"/>
<path d="M37.4286 412.429H26.7143V423.143H37.4286V412.429Z" fill="black"/>
<path d="M48.1429 412.429H37.4286V423.143H48.1429V412.429Z" fill="black"/>
<path d="M58.8571 412.429H48.1429V423.143H58.8571V412.429Z" fill="black"/>
<path d="M69.5714 412.429H58.8571V423.143H69.5714V412.429Z" fill="black"/>
<path d="M112.429 412.429H101.714V423.143H112.429V412.429Z" fill="black"/>
<path d="M123.143 412.429H112.429V423.143H123.143V412.429Z" fill="black"/>
<path d="M133.857 412.429H123.143V423.143H133.857V412.429Z" fill="black"/>
<path d="M144.571 412.429H133.857V423.143H144.571V412.429Z" fill="black"/>
<path d="M176.714 412.429H166V423.143H176.714V412.429Z" fill="black"/>
<path d="M230.286 412.429H219.571V423.143H230.286V412.429Z" fill="black"/>
<path d="M241 412.429H230.286V423.143H241V412.429Z" fill="black"/>
<path d="M251.714 412.429H241V423.143H251.714V412.429Z" fill="black"/>
<path d="M273.143 412.429H262.429V423.143H273.143V412.429Z" fill="black"/>
<path d="M305.286 412.429H294.571V423.143H305.286V412.429Z" fill="black"/>
<path d="M316 412.429H305.286V423.143H316V412.429Z" fill="black"/>
<path d="M326.714 412.429H316V423.143H326.714V412.429Z" fill="black"/>
<path d="M401.714 412.429H391V423.143H401.714V412.429Z" fill="black"/>
<path d="M423.143 412.429H412.429V423.143H423.143V412.429Z" fill="black"/>
<path d="M444.571 412.429H433.857L433.857 423.143H444.571V412.429Z" fill="black"/>
<path d="M455.286 412.429H444.571V423.143H455.286V412.429Z" fill="black"/>
<path d="M476.714 412.429H466L466 423.143H476.714V412.429Z" fill="black"/>
<path d="M508.857 412.429H498.143V423.143H508.857V412.429Z" fill="black"/>
<path d="M37.4286 423.143H26.7143V433.857H37.4286V423.143Z" fill="black"/>
<path d="M80.2857 423.143L69.5714 423.143V433.857H80.2857V423.143Z" fill="black"/>
<path d="M91 423.143H80.2857V433.857H91V423.143Z" fill="black"/>
<path d="M101.714 423.143L91 423.143V433.857H101.714V423.143Z" fill="black"/>
<path d="M155.286 423.143L144.571 423.143V433.857H155.286V423.143Z" fill="black"/>
<path d="M166 423.143L155.286 423.143V433.857H166V423.143Z" fill="black"/>
<path d="M176.714 423.143H166V433.857H176.714V423.143Z" fill="black"/>
<path d="M198.143 423.143H187.429V433.857H198.143V423.143Z" fill="black"/>
<path d="M219.571 423.143L208.857 423.143V433.857H219.571V423.143Z" fill="black"/>
<path d="M230.286 423.143H219.571V433.857H230.286V423.143Z" fill="black"/>
<path d="M294.571 423.143L283.857 423.143V433.857H294.571V423.143Z" fill="black"/>
<path d="M305.286 423.143H294.571V433.857H305.286V423.143Z" fill="black"/>
<path d="M316 423.143H305.286V433.857H316V423.143Z" fill="black"/>
<path d="M348.143 423.143H337.429V433.857H348.143V423.143Z" fill="black"/>
<path d="M369.571 423.143H358.857V433.857H369.571V423.143Z" fill="black"/>
<path d="M391 423.143L380.286 423.143V433.857H391L391 423.143Z" fill="black"/>
<path d="M401.714 423.143H391L391 433.857H401.714V423.143Z" fill="black"/>
<path d="M423.143 423.143H412.429V433.857H423.143V423.143Z" fill="black"/>
<path d="M433.857 423.143H423.143V433.857H433.857L433.857 423.143Z" fill="black"/>
<path d="M444.571 423.143H433.857L433.857 433.857H444.571V423.143Z" fill="black"/>
<path d="M476.714 423.143H466V433.857H476.714V423.143Z" fill="black"/>
<path d="M487.429 423.143L476.714 423.143V433.857H487.429V423.143Z" fill="black"/>
<path d="M498.143 423.143L487.429 423.143V433.857H498.143V423.143Z" fill="black"/>
<path d="M530.286 423.143H519.571V433.857H530.286V423.143Z" fill="black"/>
<path d="M541 423.143H530.286V433.857H541V423.143Z" fill="black"/>
<path d="M37.4286 433.857H26.7143V444.571H37.4286V433.857Z" fill="black"/>
<path d="M48.1429 433.857L37.4286 433.857V444.571H48.1429V433.857Z" fill="black"/>
<path d="M58.8571 433.857H48.1429V444.571H58.8571V433.857Z" fill="black"/>
<path d="M112.429 433.857L101.714 433.857V444.571H112.429V433.857Z" fill="black"/>
<path d="M133.857 433.857H123.143V444.571H133.857V433.857Z" fill="black"/>
<path d="M198.143 433.857H187.429V444.571H198.143V433.857Z" fill="black"/>
<path d="M208.857 433.857H198.143V444.571H208.857V433.857Z" fill="black"/>
<path d="M262.429 433.857H251.714V444.571H262.429V433.857Z" fill="black"/>
<path d="M273.143 433.857H262.429V444.571H273.143V433.857Z" fill="black"/>
<path d="M337.429 433.857L326.714 433.857V444.571H337.429L337.429 433.857Z" fill="black"/>
<path d="M358.857 433.857H348.143L348.143 444.571H358.857L358.857 433.857Z" fill="black"/>
<path d="M380.286 433.857H369.571V444.571H380.286L380.286 433.857Z" fill="black"/>
<path d="M401.714 433.857H391L391 444.571H401.714V433.857Z" fill="black"/>
<path d="M412.429 433.857H401.714V444.571H412.429V433.857Z" fill="black"/>
<path d="M423.143 433.857H412.429V444.571H423.143V433.857Z" fill="black"/>
<path d="M433.857 433.857H423.143V444.571H433.857V433.857Z" fill="black"/>
<path d="M466 433.857L455.286 433.857V444.571H466L466 433.857Z" fill="black"/>
<path d="M487.429 433.857H476.714L476.714 444.571H487.429V433.857Z" fill="black"/>
<path d="M498.143 433.857H487.429V444.571H498.143V433.857Z" fill="black"/>
<path d="M508.857 433.857L498.143 433.857V444.571H508.857V433.857Z" fill="black"/>
<path d="M541 433.857H530.286L530.286 444.571H541V433.857Z" fill="black"/>
<path d="M26.7143 444.571L16 444.571V455.286H26.7143V444.571Z" fill="black"/>
<path d="M37.4286 444.571H26.7143V455.286H37.4286V444.571Z" fill="black"/>
<path d="M48.1429 444.571H37.4286V455.286H48.1429V444.571Z" fill="black"/>
<path d="M91 444.571H80.2857V455.286H91V444.571Z" fill="black"/>
<path d="M101.714 444.571L91 444.571V455.286H101.714V444.571Z" fill="black"/>
<path d="M144.571 444.571L133.857 444.571V455.286H144.571V444.571Z" fill="black"/>
<path d="M155.286 444.571H144.571V455.286H155.286V444.571Z" fill="black"/>
<path d="M187.429 444.571L176.714 444.571V455.286H187.429V444.571Z" fill="black"/>
<path d="M198.143 444.571H187.429V455.286H198.143V444.571Z" fill="black"/>
<path d="M208.857 444.571H198.143V455.286H208.857V444.571Z" fill="black"/>
<path d="M262.429 444.571H251.714V455.286H262.429V444.571Z" fill="black"/>
<path d="M273.143 444.571H262.429V455.286H273.143V444.571Z" fill="black"/>
<path d="M283.857 444.571L273.143 444.571V455.286H283.857V444.571Z" fill="black"/>
<path d="M294.571 444.571H283.857V455.286H294.571V444.571Z" fill="black"/>
<path d="M305.286 444.571H294.571V455.286H305.286V444.571Z" fill="black"/>
<path d="M316 444.571H305.286V455.286H316V444.571Z" fill="black"/>
<path d="M369.571 444.571H358.857L358.857 455.286H369.571V444.571Z" fill="black"/>
<path d="M412.429 444.571H401.714L401.714 455.286H412.429V444.571Z" fill="black"/>
<path d="M423.143 444.571H412.429V455.286H423.143V444.571Z" fill="black"/>
<path d="M433.857 444.571H423.143V455.286H433.857V444.571Z" fill="black"/>
<path d="M444.571 444.571L433.857 444.571V455.286H444.571V444.571Z" fill="black"/>
<path d="M455.286 444.571L444.571 444.571V455.286H455.286V444.571Z" fill="black"/>
<path d="M466 444.571H455.286V455.286H466V444.571Z" fill="black"/>
<path d="M476.714 444.571H466V455.286H476.714L476.714 444.571Z" fill="black"/>
<path d="M487.429 444.571H476.714L476.714 455.286H487.429V444.571Z" fill="black"/>
<path d="M498.143 444.571H487.429V455.286H498.143V444.571Z" fill="black"/>
<path d="M508.857 444.571H498.143V455.286H508.857V444.571Z" fill="black"/>
<path d="M530.286 444.571L519.571 444.571V455.286H530.286L530.286 444.571Z" fill="black"/>
<path d="M123.143 455.286H112.429V466H123.143V455.286Z" fill="black"/>
<path d="M166 455.286H155.286V466H166V455.286Z" fill="black"/>
<path d="M187.429 455.286H176.714V466H187.429V455.286Z" fill="black"/>
<path d="M208.857 455.286H198.143V466H208.857V455.286Z" fill="black"/>
<path d="M230.286 455.286H219.571V466H230.286V455.286Z" fill="black"/>
<path d="M241 455.286H230.286V466H241V455.286Z" fill="black"/>
<path d="M262.429 455.286H251.714V466H262.429V455.286Z" fill="black"/>
<path d="M305.286 455.286H294.571V466H305.286V455.286Z" fill="black"/>
<path d="M326.714 455.286H316L316 466H326.714V455.286Z" fill="black"/>
<path d="M348.143 455.286H337.429V466H348.143V455.286Z" fill="black"/>
<path d="M369.571 455.286H358.857V466H369.571V455.286Z" fill="black"/>
<path d="M380.286 455.286H369.571V466H380.286V455.286Z" fill="black"/>
<path d="M391 455.286H380.286V466H391V455.286Z" fill="black"/>
<path d="M412.429 455.286H401.714V466H412.429V455.286Z" fill="black"/>
<path d="M433.857 455.286H423.143L423.143 466H433.857V455.286Z" fill="black"/>
<path d="M444.571 455.286H433.857V466H444.571V455.286Z" fill="black"/>
<path d="M455.286 455.286H444.571V466H455.286V455.286Z" fill="black"/>
<path d="M498.143 455.286H487.429L487.429 466H498.143V455.286Z" fill="black"/>
<path d="M508.857 455.286H498.143V466H508.857V455.286Z" fill="black"/>
<path d="M519.571 455.286H508.857V466H519.571L519.571 455.286Z" fill="black"/>
<path d="M541 455.286H530.286L530.286 466H541V455.286Z" fill="black"/>
<path d="M26.7143 466H16V476.714H26.7143V466Z" fill="black"/>
<path d="M37.4286 466H26.7143V476.714H37.4286V466Z" fill="black"/>
<path d="M48.1429 466H37.4286V476.714H48.1429V466Z" fill="black"/>
<path d="M58.8571 466H48.1429V476.714H58.8571V466Z" fill="black"/>
<path d="M69.5714 466H58.8571V476.714H69.5714V466Z" fill="black"/>
<path d="M80.2857 466H69.5714V476.714H80.2857V466Z" fill="black"/>
<path d="M91 466H80.2857V476.714H91V466Z" fill="black"/>
<path d="M112.429 466L101.714 466V476.714H112.429V466Z" fill="black"/>
<path d="M123.143 466H112.429V476.714H123.143V466Z" fill="black"/>
<path d="M133.857 466L123.143 466V476.714H133.857V466Z" fill="black"/>
<path d="M144.571 466H133.857V476.714H144.571V466Z" fill="black"/>
<path d="M176.714 466H166V476.714H176.714V466Z" fill="black"/>
<path d="M251.714 466H241V476.714H251.714V466Z" fill="black"/>
<path d="M262.429 466H251.714V476.714H262.429V466Z" fill="black"/>
<path d="M283.857 466H273.143V476.714H283.857V466Z" fill="black"/>
<path d="M305.286 466H294.571V476.714H305.286V466Z" fill="black"/>
<path d="M348.143 466H337.429V476.714H348.143V466Z" fill="black"/>
<path d="M358.857 466H348.143V476.714H358.857L358.857 466Z" fill="black"/>
<path d="M369.571 466H358.857L358.857 476.714H369.571V466Z" fill="black"/>
<path d="M401.714 466H391L391 476.714H401.714L401.714 466Z" fill="black"/>
<path d="M412.429 466H401.714L401.714 476.714H412.429V466Z" fill="black"/>
<path d="M444.571 466H433.857L433.857 476.714H444.571V466Z" fill="black"/>
<path d="M455.286 466H444.571V476.714H455.286V466Z" fill="black"/>
<path d="M476.714 466H466V476.714H476.714V466Z" fill="black"/>
<path d="M498.143 466H487.429V476.714H498.143V466Z" fill="black"/>
<path d="M519.571 466H508.857L508.857 476.714H519.571V466Z" fill="black"/>
<path d="M26.7143 476.714H16V487.429H26.7143V476.714Z" fill="black"/>
<path d="M91 476.714H80.2857V487.429H91V476.714Z" fill="black"/>
<path d="M123.143 476.714H112.429V487.429H123.143V476.714Z" fill="black"/>
<path d="M166 476.714L155.286 476.714V487.429H166V476.714Z" fill="black"/>
<path d="M198.143 476.714H187.429V487.429H198.143V476.714Z" fill="black"/>
<path d="M219.571 476.714H208.857V487.429H219.571V476.714Z" fill="black"/>
<path d="M230.286 476.714H219.571V487.429H230.286V476.714Z" fill="black"/>
<path d="M241 476.714L230.286 476.714V487.429H241V476.714Z" fill="black"/>
<path d="M251.714 476.714H241V487.429H251.714V476.714Z" fill="black"/>
<path d="M262.429 476.714H251.714V487.429H262.429V476.714Z" fill="black"/>
<path d="M305.286 476.714H294.571V487.429H305.286V476.714Z" fill="black"/>
<path d="M348.143 476.714H337.429V487.429H348.143V476.714Z" fill="black"/>
<path d="M358.857 476.714H348.143V487.429H358.857V476.714Z" fill="black"/>
<path d="M369.571 476.714H358.857V487.429H369.571V476.714Z" fill="black"/>
<path d="M391 476.714L380.286 476.714V487.429H391L391 476.714Z" fill="black"/>
<path d="M401.714 476.714H391L391 487.429H401.714V476.714Z" fill="black"/>
<path d="M412.429 476.714H401.714V487.429H412.429V476.714Z" fill="black"/>
<path d="M423.143 476.714L412.429 476.714V487.429H423.143V476.714Z" fill="black"/>
<path d="M455.286 476.714H444.571L444.571 487.429H455.286V476.714Z" fill="black"/>
<path d="M498.143 476.714H487.429V487.429H498.143V476.714Z" fill="black"/>
<path d="M508.857 476.714H498.143V487.429H508.857L508.857 476.714Z" fill="black"/>
<path d="M519.571 476.714H508.857L508.857 487.429H519.571V476.714Z" fill="black"/>
<path d="M530.286 476.714L519.571 476.714V487.429H530.286V476.714Z" fill="black"/>
<path d="M26.7143 487.429H16V498.143H26.7143V487.429Z" fill="black"/>
<path d="M48.1429 487.429H37.4286V498.143H48.1429V487.429Z" fill="black"/>
<path d="M58.8571 487.429H48.1429V498.143H58.8571V487.429Z" fill="black"/>
<path d="M69.5714 487.429H58.8571V498.143H69.5714V487.429Z" fill="black"/>
<path d="M91 487.429H80.2857V498.143H91V487.429Z" fill="black"/>
<path d="M133.857 487.429L123.143 487.429V498.143H133.857V487.429Z" fill="black"/>
<path d="M144.571 487.429H133.857V498.143H144.571V487.429Z" fill="black"/>
<path d="M166 487.429H155.286V498.143H166V487.429Z" fill="black"/>
<path d="M176.714 487.429L166 487.429V498.143H176.714V487.429Z" fill="black"/>
<path d="M187.429 487.429L176.714 487.429V498.143H187.429V487.429Z" fill="black"/>
<path d="M198.143 487.429H187.429V498.143H198.143V487.429Z" fill="black"/>
<path d="M251.714 487.429H241V498.143H251.714V487.429Z" fill="black"/>
<path d="M262.429 487.429H251.714V498.143H262.429V487.429Z" fill="black"/>
<path d="M273.143 487.429L262.429 487.429V498.143H273.143V487.429Z" fill="black"/>
<path d="M283.857 487.429H273.143V498.143H283.857V487.429Z" fill="black"/>
<path d="M294.571 487.429L283.857 487.429V498.143H294.571V487.429Z" fill="black"/>
<path d="M305.286 487.429H294.571V498.143H305.286V487.429Z" fill="black"/>
<path d="M348.143 487.429H337.429V498.143H348.143V487.429Z" fill="black"/>
<path d="M369.571 487.429H358.857L358.857 498.143H369.571V487.429Z" fill="black"/>
<path d="M391 487.429H380.286V498.143H391V487.429Z" fill="black"/>
<path d="M412.429 487.429H401.714L401.714 498.143H412.429V487.429Z" fill="black"/>
<path d="M423.143 487.429H412.429V498.143H423.143V487.429Z" fill="black"/>
<path d="M433.857 487.429L423.143 487.429V498.143H433.857V487.429Z" fill="black"/>
<path d="M455.286 487.429H444.571V498.143H455.286V487.429Z" fill="black"/>
<path d="M466 487.429L455.286 487.429V498.143H466V487.429Z" fill="black"/>
<path d="M476.714 487.429H466V498.143H476.714V487.429Z" fill="black"/>
<path d="M487.429 487.429L476.714 487.429V498.143H487.429L487.429 487.429Z" fill="black"/>
<path d="M498.143 487.429H487.429L487.429 498.143H498.143V487.429Z" fill="black"/>
<path d="M508.857 487.429H498.143V498.143H508.857V487.429Z" fill="black"/>
<path d="M519.571 487.429H508.857V498.143H519.571V487.429Z" fill="black"/>
<path d="M26.7143 498.143H16V508.857H26.7143V498.143Z" fill="black"/>
<path d="M48.1429 498.143H37.4286V508.857H48.1429V498.143Z" fill="black"/>
<path d="M58.8571 498.143H48.1429V508.857H58.8571V498.143Z" fill="black"/>
<path d="M69.5714 498.143H58.8571V508.857H69.5714V498.143Z" fill="black"/>
<path d="M91 498.143H80.2857V508.857H91V498.143Z" fill="black"/>
<path d="M112.429 498.143H101.714V508.857H112.429V498.143Z" fill="black"/>
<path d="M123.143 498.143H112.429V508.857H123.143V498.143Z" fill="black"/>
<path d="M144.571 498.143H133.857V508.857H144.571V498.143Z" fill="black"/>
<path d="M155.286 498.143H144.571V508.857H155.286V498.143Z" fill="black"/>
<path d="M166 498.143H155.286V508.857H166V498.143Z" fill="black"/>
<path d="M176.714 498.143H166V508.857H176.714V498.143Z" fill="black"/>
<path d="M208.857 498.143H198.143V508.857H208.857V498.143Z" fill="black"/>
<path d="M219.571 498.143H208.857V508.857H219.571V498.143Z" fill="black"/>
<path d="M230.286 498.143H219.571V508.857H230.286V498.143Z" fill="black"/>
<path d="M241 498.143H230.286V508.857H241V498.143Z" fill="black"/>
<path d="M273.143 498.143H262.429V508.857H273.143V498.143Z" fill="black"/>
<path d="M283.857 498.143H273.143V508.857H283.857V498.143Z" fill="black"/>
<path d="M294.571 498.143H283.857V508.857H294.571V498.143Z" fill="black"/>
<path d="M305.286 498.143H294.571V508.857H305.286V498.143Z" fill="black"/>
<path d="M326.714 498.143H316V508.857H326.714V498.143Z" fill="black"/>
<path d="M337.429 498.143H326.714V508.857H337.429L337.429 498.143Z" fill="black"/>
<path d="M358.857 498.143H348.143L348.143 508.857H358.857L358.857 498.143Z" fill="black"/>
<path d="M401.714 498.143H391L391 508.857H401.714L401.714 498.143Z" fill="black"/>
<path d="M433.857 498.143H423.143L423.143 508.857H433.857V498.143Z" fill="black"/>
<path d="M466 498.143H455.286V508.857H466V498.143Z" fill="black"/>
<path d="M476.714 498.143H466V508.857H476.714V498.143Z" fill="black"/>
<path d="M487.429 498.143H476.714V508.857H487.429V498.143Z" fill="black"/>
<path d="M519.571 498.143H508.857L508.857 508.857H519.571V498.143Z" fill="black"/>
<path d="M530.286 498.143H519.571V508.857H530.286V498.143Z" fill="black"/>
<path d="M26.7143 508.857H16V519.571H26.7143V508.857Z" fill="black"/>
<path d="M48.1429 508.857H37.4286V519.571H48.1429V508.857Z" fill="black"/>
<path d="M58.8571 508.857H48.1429V519.571H58.8571V508.857Z" fill="black"/>
<path d="M69.5714 508.857H58.8571V519.571H69.5714V508.857Z" fill="black"/>
<path d="M91 508.857H80.2857V519.571H91V508.857Z" fill="black"/>
<path d="M133.857 508.857H123.143V519.571H133.857V508.857Z" fill="black"/>
<path d="M144.571 508.857H133.857V519.571H144.571V508.857Z" fill="black"/>
<path d="M155.286 508.857H144.571V519.571H155.286V508.857Z" fill="black"/>
<path d="M176.714 508.857H166V519.571H176.714V508.857Z" fill="black"/>
<path d="M198.143 508.857L187.429 508.857V519.571H198.143V508.857Z" fill="black"/>
<path d="M208.857 508.857H198.143V519.571H208.857V508.857Z" fill="black"/>
<path d="M273.143 508.857H262.429V519.571H273.143V508.857Z" fill="black"/>
<path d="M283.857 508.857H273.143V519.571H283.857V508.857Z" fill="black"/>
<path d="M305.286 508.857H294.571V519.571H305.286V508.857Z" fill="black"/>
<path d="M326.714 508.857H316V519.571H326.714V508.857Z" fill="black"/>
<path d="M401.714 508.857H391V519.571H401.714V508.857Z" fill="black"/>
<path d="M412.429 508.857L401.714 508.857V519.571H412.429V508.857Z" fill="black"/>
<path d="M423.143 508.857L412.429 508.857V519.571H423.143L423.143 508.857Z" fill="black"/>
<path d="M433.857 508.857H423.143L423.143 519.571H433.857V508.857Z" fill="black"/>
<path d="M455.286 508.857L444.571 508.857V519.571H455.286V508.857Z" fill="black"/>
<path d="M466 508.857H455.286V519.571H466V508.857Z" fill="black"/>
<path d="M530.286 508.857H519.571L519.571 519.571H530.286V508.857Z" fill="black"/>
<path d="M26.7143 519.571H16V530.286H26.7143V519.571Z" fill="black"/>
<path d="M91 519.571H80.2857V530.286H91V519.571Z" fill="black"/>
<path d="M112.429 519.571H101.714V530.286H112.429V519.571Z" fill="black"/>
<path d="M144.571 519.571H133.857V530.286H144.571V519.571Z" fill="black"/>
<path d="M155.286 519.571H144.571V530.286H155.286V519.571Z" fill="black"/>
<path d="M176.714 519.571H166V530.286H176.714V519.571Z" fill="black"/>
<path d="M198.143 519.571H187.429V530.286H198.143V519.571Z" fill="black"/>
<path d="M208.857 519.571H198.143V530.286H208.857V519.571Z" fill="black"/>
<path d="M219.571 519.571L208.857 519.571V530.286H219.571V519.571Z" fill="black"/>
<path d="M273.143 519.571H262.429V530.286H273.143V519.571Z" fill="black"/>
<path d="M283.857 519.571H273.143V530.286H283.857V519.571Z" fill="black"/>
<path d="M294.571 519.571H283.857V530.286H294.571V519.571Z" fill="black"/>
<path d="M316 519.571H305.286V530.286H316L316 519.571Z" fill="black"/>
<path d="M348.143 519.571H337.429V530.286H348.143V519.571Z" fill="black"/>
<path d="M358.857 519.571H348.143V530.286H358.857V519.571Z" fill="black"/>
<path d="M369.571 519.571H358.857V530.286H369.571V519.571Z" fill="black"/>
<path d="M401.714 519.571H391V530.286H401.714V519.571Z" fill="black"/>
<path d="M423.143 519.571H412.429V530.286H423.143V519.571Z" fill="black"/>
<path d="M444.571 519.571H433.857L433.857 530.286H444.571L444.571 519.571Z" fill="black"/>
<path d="M476.714 519.571L466 519.571L466 530.286H476.714V519.571Z" fill="black"/>
<path d="M508.857 519.571H498.143V530.286H508.857V519.571Z" fill="black"/>
<path d="M541 519.571L530.286 519.571L530.286 530.286H541V519.571Z" fill="black"/>
<path d="M26.7143 530.286H16V541H26.7143V530.286Z" fill="black"/>
<path d="M37.4286 530.286L26.7143 530.286V541H37.4286V530.286Z" fill="black"/>
<path d="M48.1429 530.286H37.4286V541H48.1429V530.286Z" fill="black"/>
<path d="M58.8571 530.286H48.1429V541H58.8571V530.286Z" fill="black"/>
<path d="M69.5714 530.286H58.8571V541H69.5714V530.286Z" fill="black"/>
<path d="M80.2857 530.286L69.5714 530.286V541H80.2857V530.286Z" fill="black"/>
<path d="M91 530.286H80.2857V541H91V530.286Z" fill="black"/>
<path d="M112.429 530.286H101.714V541H112.429V530.286Z" fill="black"/>
<path d="M144.571 530.286H133.857V541H144.571V530.286Z" fill="black"/>
<path d="M166 530.286H155.286V541H166V530.286Z" fill="black"/>
<path d="M187.429 530.286H176.714V541H187.429V530.286Z" fill="black"/>
<path d="M198.143 530.286H187.429V541H198.143V530.286Z" fill="black"/>
<path d="M208.857 530.286H198.143V541H208.857V530.286Z" fill="black"/>
<path d="M219.571 530.286H208.857V541H219.571V530.286Z" fill="black"/>
<path d="M230.286 530.286L219.571 530.286V541H230.286V530.286Z" fill="black"/>
<path d="M294.571 530.286H283.857V541H294.571V530.286Z" fill="black"/>
<path d="M326.714 530.286L316 530.286L316 541H326.714V530.286Z" fill="black"/>
<path d="M337.429 530.286L326.714 530.286V541H337.429L337.429 530.286Z" fill="black"/>
<path d="M348.143 530.286H337.429L337.429 541H348.143V530.286Z" fill="black"/>
<path d="M358.857 530.286H348.143V541H358.857V530.286Z" fill="black"/>
<path d="M369.571 530.286H358.857V541H369.571V530.286Z" fill="black"/>
<path d="M423.143 530.286H412.429V541H423.143V530.286Z" fill="black"/>
<path d="M444.571 530.286H433.857V541H444.571V530.286Z" fill="black"/>
<path d="M466 530.286L455.286 530.286V541H466L466 530.286Z" fill="black"/>
<path d="M476.714 530.286H466L466 541H476.714V530.286Z" fill="black"/>
<path d="M541 530.286H530.286V541H541V530.286Z" fill="black"/>
</g>
<defs>
<clipPath id="clip0_185_12">
<rect width="557" height="557" fill="white"/>
</clipPath>
</defs>
</svg>
