<svg width="512" height="512" viewBox="0 0 512 512" fill="none" xmlns="http://www.w3.org/2000/svg">
<rect width="512" height="512" rx="160" fill="#5D4037"/>
<path d="M135.332 231.652C127.642 283.462 256.1 454 256.1 454C256.1 454 384.559 283.254 376.868 231.443C369.178 179.633 326.738 173.085 302.184 186.309C277.629 199.533 256.1 249.908 256.1 249.908C256.1 249.908 234.572 199.741 210.017 186.517C185.462 173.293 143.022 179.841 135.332 231.652Z" stroke="#D9D9D9" stroke-width="9.42657" stroke-linejoin="round"/>
<path d="M256.338 62.7129C281.738 62.7131 302.325 83.2922 302.325 108.672C302.325 134.052 281.738 154.631 256.338 154.631C230.938 154.631 210.351 134.052 210.351 108.672C210.351 83.2921 230.938 62.7129 256.338 62.7129Z" stroke="#D9D9D9" stroke-width="9.42657"/>
<path d="M140.697 259.55C140.697 259.55 237.824 337.609 254.06 350.42C270.295 363.23 254.06 374.559 242.381 369.719C230.703 364.88 179.434 340.967 179.434 340.967M370.27 214.572C370.27 214.572 290.233 293.996 273.998 306.806C257.762 319.617 273.998 330.946 285.676 326.106C297.354 321.267 362.865 284.032 362.865 284.032" stroke="#D9D9D9" stroke-width="9.42657" stroke-linejoin="round"/>
</svg>
