<svg width="512" height="512" viewBox="0 0 512 512" fill="none" xmlns="http://www.w3.org/2000/svg">
<rect width="512" height="512" fill="#5D4037"/>
<path d="M161.6 193.806C155.585 234.325 256.047 367.694 256.047 367.694C256.047 367.694 356.509 234.162 350.495 193.643C344.48 153.124 311.29 148.003 292.087 158.345C272.884 168.687 256.047 208.083 256.047 208.083C256.047 208.083 239.211 168.85 220.007 158.508C200.804 148.166 167.614 153.287 161.6 193.806Z" stroke="#D9D9D9" stroke-width="7.37211" stroke-linejoin="round"/>
<path d="M256.233 61.6868C276.098 61.6869 292.197 77.7807 292.197 97.6292C292.197 117.477 276.097 133.571 256.233 133.572C236.369 133.572 220.27 117.477 220.27 97.6292C220.27 77.7806 236.369 61.6868 256.233 61.6868Z" stroke="#D9D9D9" stroke-width="7.37211"/>
<path d="M165.795 215.624C165.795 215.624 241.754 276.671 254.451 286.689C267.148 296.707 254.451 305.567 245.318 301.782C236.186 297.998 196.09 279.297 196.09 279.297M345.335 180.448C345.335 180.448 282.741 242.562 270.044 252.581C257.347 262.599 270.044 271.459 279.177 267.674C288.31 263.89 339.543 234.77 339.543 234.77" stroke="#D9D9D9" stroke-width="7.37211" stroke-linejoin="round"/>
<path d="M354.277 408.652C353.254 408.652 352.384 408.428 351.668 407.979C351.003 407.496 350.67 406.926 350.67 406.27C350.67 405.994 350.721 405.753 350.823 405.546C350.926 405.338 351.054 405.149 351.207 404.976L362.95 393.067C363.666 392.412 364.638 392.084 365.866 392.084C366.48 392.084 367.017 392.17 367.478 392.343C367.989 392.515 368.424 392.757 368.782 393.067L380.525 404.976C380.883 405.356 381.062 405.787 381.062 406.27C381.062 406.926 380.704 407.496 379.987 407.979C379.322 408.428 378.478 408.652 377.455 408.652C376.278 408.652 375.331 408.341 374.615 407.72L365.866 398.866L357.04 407.72C356.375 408.341 355.454 408.652 354.277 408.652Z" fill="#D9D9D9"/>
<path d="M147.853 453.827C143.924 453.827 140.373 452.921 137.2 451.108C134.077 449.246 131.584 446.729 129.72 443.557C127.907 440.386 127 436.812 127 432.835C127 428.858 127.831 425.309 129.493 422.187C131.206 419.016 133.523 416.524 136.444 414.712C139.365 412.849 142.665 411.918 146.342 411.918C149.313 411.918 152.058 412.547 154.577 413.806C157.095 415.014 159.211 416.675 160.923 418.789V398.401C160.923 397.243 161.276 396.312 161.981 395.607C162.737 394.903 163.668 394.55 164.776 394.55C165.935 394.55 166.867 394.903 167.572 395.607C168.277 396.312 168.63 397.243 168.63 398.401V432.835C168.63 436.812 167.698 440.386 165.834 443.557C164.021 446.729 161.553 449.246 158.43 451.108C155.307 452.921 151.781 453.827 147.853 453.827ZM147.853 447.031C150.421 447.031 152.713 446.427 154.728 445.218C156.743 443.96 158.329 442.248 159.488 440.084C160.646 437.919 161.225 435.503 161.225 432.835C161.225 430.116 160.646 427.7 159.488 425.585C158.329 423.471 156.743 421.81 154.728 420.602C152.713 419.343 150.421 418.714 147.853 418.714C145.334 418.714 143.042 419.343 140.977 420.602C138.963 421.81 137.351 423.471 136.142 425.585C134.983 427.7 134.404 430.116 134.404 432.835C134.404 435.503 134.983 437.919 136.142 440.084C137.351 442.248 138.963 443.96 140.977 445.218C143.042 446.427 145.334 447.031 147.853 447.031Z" fill="#D9D9D9"/>
<path d="M179.292 453.525C178.184 453.525 177.252 453.172 176.497 452.468C175.791 451.712 175.439 450.781 175.439 449.674V416.071C175.439 414.913 175.791 413.982 176.497 413.277C177.252 412.572 178.184 412.22 179.292 412.22C180.451 412.22 181.382 412.572 182.088 413.277C182.793 413.982 183.145 414.913 183.145 416.071V449.674C183.145 450.781 182.793 451.712 182.088 452.468C181.382 453.172 180.451 453.525 179.292 453.525ZM179.292 405.499C177.932 405.499 176.748 405.021 175.741 404.065C174.784 403.058 174.306 401.875 174.306 400.516C174.306 399.156 174.784 397.999 175.741 397.042C176.748 396.035 177.932 395.532 179.292 395.532C180.652 395.532 181.811 396.035 182.768 397.042C183.775 397.999 184.279 399.156 184.279 400.516C184.279 401.875 183.775 403.058 182.768 404.065C181.811 405.021 180.652 405.499 179.292 405.499Z" fill="#D9D9D9"/>
<path d="M215.688 453.827C211.658 453.827 208.057 452.921 204.884 451.108C201.761 449.246 199.293 446.754 197.48 443.633C195.717 440.461 194.835 436.887 194.835 432.91C194.835 428.832 195.717 425.208 197.48 422.036C199.243 418.865 201.66 416.398 204.733 414.636C207.805 412.824 211.331 411.918 215.31 411.918C218.282 411.918 221.002 412.497 223.47 413.655C225.938 414.762 228.154 416.449 230.119 418.714C230.824 419.519 231.076 420.35 230.874 421.206C230.673 422.062 230.119 422.817 229.212 423.471C228.507 423.975 227.726 424.151 226.87 424C226.014 423.798 225.233 423.345 224.528 422.641C222.06 420.023 218.987 418.714 215.31 418.714C212.741 418.714 210.475 419.318 208.51 420.526C206.546 421.684 205.01 423.32 203.902 425.434C202.794 427.549 202.24 430.041 202.24 432.91C202.24 435.629 202.794 438.045 203.902 440.159C205.06 442.274 206.647 443.96 208.662 445.218C210.676 446.427 213.018 447.031 215.688 447.031C217.451 447.031 218.987 446.829 220.297 446.427C221.657 445.974 222.891 445.294 223.999 444.388C224.805 443.733 225.636 443.381 226.492 443.331C227.348 443.23 228.104 443.457 228.759 444.01C229.615 444.715 230.093 445.521 230.194 446.427C230.295 447.282 229.993 448.063 229.287 448.768C225.661 452.14 221.128 453.827 215.688 453.827Z" fill="#D9D9D9"/>
<path d="M252.149 453.902C248.673 453.902 245.55 453.172 242.78 451.712C240.06 450.202 237.894 448.012 236.283 445.143C234.721 442.274 233.94 438.75 233.94 434.571V415.995C233.94 414.888 234.293 413.982 234.998 413.277C235.754 412.522 236.686 412.144 237.794 412.144C238.902 412.144 239.808 412.522 240.514 413.277C241.269 413.982 241.647 414.888 241.647 415.995V434.571C241.647 437.39 242.176 439.731 243.233 441.594C244.291 443.406 245.727 444.765 247.54 445.672C249.353 446.527 251.393 446.955 253.66 446.955C255.826 446.955 257.74 446.527 259.402 445.672C261.114 444.816 262.474 443.658 263.482 442.198C264.489 440.738 264.993 439.102 264.993 437.29H269.753C269.753 440.411 268.972 443.23 267.41 445.747C265.899 448.264 263.809 450.253 261.14 451.712C258.52 453.172 255.523 453.902 252.149 453.902ZM268.846 453.525C267.738 453.525 266.806 453.172 266.05 452.468C265.345 451.712 264.993 450.781 264.993 449.674V415.995C264.993 414.838 265.345 413.906 266.05 413.202C266.806 412.497 267.738 412.144 268.846 412.144C270.004 412.144 270.936 412.497 271.641 413.202C272.347 413.906 272.699 414.838 272.699 415.995V449.674C272.699 450.781 272.347 451.712 271.641 452.468C270.936 453.172 270.004 453.525 268.846 453.525Z" fill="#D9D9D9"/>
<path d="M308.676 454C309.833 453.999 310.764 453.647 311.469 452.943C312.174 452.188 312.527 451.256 312.527 450.149V428.854C312.527 426.035 313.358 423.72 315.02 421.907C316.733 420.095 318.899 419.189 321.518 419.189C324.036 419.189 326.076 419.969 327.638 421.53C329.199 423.04 329.98 425.381 329.98 428.552V450.149C329.98 451.256 330.332 452.188 331.037 452.943C331.793 453.647 332.725 454 333.833 454C334.991 454 335.923 453.647 336.628 452.943C337.334 452.188 337.686 451.256 337.686 450.149V428.552C337.686 425.079 337.057 422.134 335.797 419.718C334.588 417.251 332.876 415.388 330.66 414.13C328.444 412.871 325.9 412.242 323.029 412.242C319.755 412.242 316.834 412.947 314.265 414.356C312.488 415.351 309.899 416.621 308.674 418.168C307.448 416.621 304.862 415.351 303.085 414.356C300.516 412.947 297.594 412.242 294.321 412.242C291.45 412.242 288.906 412.871 286.69 414.13C284.473 415.388 282.761 417.251 281.552 419.718C280.293 422.134 279.663 425.079 279.663 428.552V450.149C279.663 451.256 280.016 452.188 280.721 452.943C281.426 453.647 282.358 454 283.516 454C284.625 454 285.556 453.647 286.312 452.943C287.017 452.188 287.37 451.256 287.37 450.149V428.552C287.37 425.381 288.15 423.04 289.712 421.53C291.273 419.969 293.313 419.189 295.832 419.189C298.451 419.189 300.617 420.095 302.329 421.907C303.991 423.72 304.822 426.035 304.822 428.854V450.149C304.822 451.256 305.175 452.188 305.88 452.943C306.585 453.647 307.517 454 308.676 454Z" fill="#D9D9D9"/>
<path d="M367.037 447.635C371.822 447.635 375.676 446.024 378.597 442.802L382.526 447.484C380.763 449.598 378.521 451.209 375.802 452.317C373.132 453.424 370.135 453.978 366.811 453.978C362.58 453.978 358.827 453.122 355.553 451.41C352.279 449.648 349.736 447.207 347.923 444.086C346.16 440.965 345.278 437.441 345.278 433.514C345.278 429.638 346.134 426.139 347.847 423.018C349.61 419.897 352.002 417.481 355.024 415.769C358.097 414.007 361.547 413.126 365.375 413.126C369.002 413.126 372.301 413.957 375.273 415.618C378.244 417.229 380.612 419.519 382.375 422.489C384.138 425.46 385.044 428.883 385.095 432.759L353.287 438.951C354.294 441.72 355.981 443.859 358.349 445.37C360.767 446.88 363.663 447.635 367.037 447.635ZM365.375 419.242C362.857 419.242 360.59 419.821 358.575 420.979C356.611 422.137 355.075 423.773 353.967 425.888C352.859 427.951 352.305 430.368 352.305 433.137V433.892L377.917 429.059C377.262 426.139 375.802 423.773 373.535 421.961C371.268 420.149 368.548 419.242 365.375 419.242Z" fill="#D9D9D9"/>
</svg>
